<?xml version="1.0" encoding="utf-8" standalone="no"?>
<!DOCTYPE svg PUBLIC "-//W3C//DTD SVG 1.1//EN"
  "http://www.w3.org/Graphics/SVG/1.1/DTD/svg11.dtd">
<!-- Created with matplotlib (https://matplotlib.org/) -->
<svg height="288pt" version="1.1" viewBox="0 0 432 288" width="432pt" xmlns="http://www.w3.org/2000/svg" xmlns:xlink="http://www.w3.org/1999/xlink">
 <defs>
  <style type="text/css">
*{stroke-linecap:butt;stroke-linejoin:round;}
  </style>
 </defs>
 <g id="figure_1">
  <g id="patch_1">
   <path d="M 0 288 
L 432 288 
L 432 0 
L 0 0 
z
" style="fill:#ffffff;"/>
  </g>
  <g id="axes_1">
   <g id="patch_2">
    <path d="M 54 252 
L 388.8 252 
L 388.8 34.56 
L 54 34.56 
z
" style="fill:#ffffff;"/>
   </g>
   <g id="PolyCollection_1">
    <defs>
     <path d="M 69.218182 -212.750435 
L 69.218182 -152.191693 
L 80.941452 -146.99934 
L 91.293689 -142.414232 
L 100.562262 -138.30909 
L 108.952698 -134.592882 
L 116.617089 -131.198248 
L 123.67114 -128.073939 
L 130.20493 -125.180059 
L 136.289956 -122.484941 
L 141.983924 -119.963026 
L 147.334074 -117.593392 
L 152.379575 -115.35869 
L 157.15326 -113.244377 
L 161.682924 -111.238144 
L 165.992308 -109.329475 
L 170.101846 -107.50932 
L 174.029255 -105.769832 
L 177.789995 -104.104163 
L 181.397639 -102.506302 
L 184.864165 -100.970943 
L 188.200199 -99.493381 
L 191.415209 -98.069421 
L 194.517671 -96.69531 
L 197.515199 -95.367675 
L 200.414659 -94.083476 
L 203.222265 -92.839959 
L 205.943659 -91.634627 
L 208.583978 -90.465204 
L 211.147913 -89.329612 
L 213.63976 -88.225948 
L 216.063462 -87.152466 
L 218.422647 -86.10756 
L 220.720661 -85.089747 
L 222.960597 -84.097657 
L 225.145316 -83.130023 
L 227.277478 -82.185668 
L 229.35955 -81.263497 
L 231.393833 -80.362493 
L 233.382471 -79.481706 
L 235.327468 -78.620247 
L 237.230698 -77.777288 
L 239.093917 -76.95205 
L 240.918773 -76.143803 
L 242.706813 -75.351862 
L 244.459495 -74.575582 
L 246.178189 -73.814356 
L 247.864188 -73.06761 
L 249.518714 -72.334804 
L 251.142919 -71.615428 
L 252.737895 -70.908997 
L 254.304676 -70.215054 
L 255.844241 -69.533166 
L 257.357519 -68.86292 
L 258.845394 -68.203926 
L 260.308703 -67.555811 
L 261.748245 -66.918224 
L 263.16478 -66.290827 
L 264.559032 -65.673299 
L 265.93169 -65.065335 
L 267.283413 -64.466643 
L 268.614831 -63.876945 
L 269.926544 -63.295974 
L 271.219128 -62.723476 
L 272.493131 -62.159208 
L 273.749082 -61.602935 
L 274.987483 -61.054435 
L 276.20882 -60.513493 
L 277.413555 -59.979904 
L 278.602134 -59.45347 
L 279.774985 -58.934003 
L 280.932518 -58.42132 
L 282.075129 -57.915246 
L 283.203197 -57.415614 
L 284.317088 -56.92226 
L 285.417154 -56.43503 
L 286.503733 -55.953774 
L 287.577153 -55.478345 
L 288.637728 -55.008606 
L 289.685762 -54.544421 
L 290.721549 -54.085661 
L 291.74537 -53.632201 
L 292.757501 -53.183918 
L 293.758203 -52.740697 
L 294.747734 -52.302424 
L 295.726338 -51.868991 
L 296.694256 -51.44029 
L 297.651718 -51.016221 
L 298.598946 -50.596684 
L 299.536159 -50.181583 
L 300.463565 -49.770826 
L 301.381368 -49.364322 
L 302.289764 -48.961984 
L 303.188944 -48.563729 
L 304.079094 -48.169473 
L 304.960393 -47.779137 
L 305.833014 -47.392644 
L 306.697128 -47.009919 
L 307.552899 -46.63089 
L 308.400486 -46.255485 
L 309.240045 -45.883636 
L 309.240045 -106.442379 
L 309.240045 -106.442379 
L 308.400486 -106.814228 
L 307.552899 -107.189632 
L 306.697128 -107.568662 
L 305.833014 -107.951386 
L 304.960393 -108.337879 
L 304.079094 -108.728215 
L 303.188944 -109.122471 
L 302.289764 -109.520727 
L 301.381368 -109.923065 
L 300.463565 -110.329568 
L 299.536159 -110.740326 
L 298.598946 -111.155427 
L 297.651718 -111.574964 
L 296.694256 -111.999033 
L 295.726338 -112.427733 
L 294.747734 -112.861167 
L 293.758203 -113.29944 
L 292.757501 -113.742661 
L 291.74537 -114.190943 
L 290.721549 -114.644404 
L 289.685762 -115.103164 
L 288.637728 -115.567349 
L 287.577153 -116.037088 
L 286.503733 -116.512516 
L 285.417154 -116.993773 
L 284.317088 -117.481003 
L 283.203197 -117.974356 
L 282.075129 -118.473989 
L 280.932518 -118.980062 
L 279.774985 -119.492745 
L 278.602134 -120.012213 
L 277.413555 -120.538646 
L 276.20882 -121.072235 
L 274.987483 -121.613177 
L 273.749082 -122.161677 
L 272.493131 -122.71795 
L 271.219128 -123.282219 
L 269.926544 -123.854717 
L 268.614831 -124.435688 
L 267.283413 -125.025386 
L 265.93169 -125.624078 
L 264.559032 -126.232041 
L 263.16478 -126.849569 
L 261.748245 -127.476966 
L 260.308703 -128.114554 
L 258.845394 -128.762668 
L 257.357519 -129.421662 
L 255.844241 -130.091908 
L 254.304676 -130.773797 
L 252.737895 -131.46774 
L 251.142919 -132.17417 
L 249.518714 -132.893547 
L 247.864188 -133.626353 
L 246.178189 -134.373099 
L 244.459495 -135.134325 
L 242.706813 -135.910605 
L 240.918773 -136.702546 
L 239.093917 -137.510793 
L 237.230698 -138.336031 
L 235.327468 -139.17899 
L 233.382471 -140.040448 
L 231.393833 -140.921236 
L 229.35955 -141.82224 
L 227.277478 -142.74441 
L 225.145316 -143.688766 
L 222.960597 -144.6564 
L 220.720661 -145.648489 
L 218.422647 -146.666302 
L 216.063462 -147.711209 
L 213.63976 -148.78469 
L 211.147913 -149.888354 
L 208.583978 -151.023946 
L 205.943659 -152.19337 
L 203.222265 -153.398702 
L 200.414659 -154.642218 
L 197.515199 -155.926418 
L 194.517671 -157.254052 
L 191.415209 -158.628164 
L 188.200199 -160.052124 
L 184.864165 -161.529686 
L 181.397639 -163.065045 
L 177.789995 -164.662906 
L 174.029255 -166.328575 
L 170.101846 -168.068063 
L 165.992308 -169.888218 
L 161.682924 -171.796887 
L 157.15326 -173.80312 
L 152.379575 -175.917432 
L 147.334074 -178.152134 
L 141.983924 -180.521769 
L 136.289956 -183.043683 
L 130.20493 -185.738802 
L 123.67114 -188.632682 
L 116.617089 -191.756991 
L 108.952698 -195.151625 
L 100.562262 -198.867832 
L 91.293689 -202.972975 
L 80.941452 -207.558083 
L 69.218182 -212.750435 
z
" id="m3481f89efe" style="stroke:#808080;stroke-opacity:0.2;"/>
    </defs>
    <g clip-path="url(#p33dab87276)">
     <use style="fill:#808080;fill-opacity:0.2;stroke:#808080;stroke-opacity:0.2;" x="0" xlink:href="#m3481f89efe" y="288"/>
    </g>
   </g>
   <g id="matplotlib.axis_1">
    <g id="xtick_1">
     <g id="line2d_1">
      <defs>
       <path d="M 0 0 
L 0 -3.5 
" id="m70f257e7b5" style="stroke:#000000;stroke-width:0.8;"/>
      </defs>
      <g>
       <use style="stroke:#000000;stroke-width:0.8;" x="69.218182" xlink:href="#m70f257e7b5" y="252"/>
      </g>
     </g>
     <g id="text_1">
      <!-- $\mathdefault{10^{0}}$ -->
      <defs>
       <path d="M 12.40625 8.296875 
L 28.515625 8.296875 
L 28.515625 63.921875 
L 10.984375 60.40625 
L 10.984375 69.390625 
L 28.421875 72.90625 
L 38.28125 72.90625 
L 38.28125 8.296875 
L 54.390625 8.296875 
L 54.390625 0 
L 12.40625 0 
z
" id="DejaVuSans-49"/>
       <path d="M 31.78125 66.40625 
Q 24.171875 66.40625 20.328125 58.90625 
Q 16.5 51.421875 16.5 36.375 
Q 16.5 21.390625 20.328125 13.890625 
Q 24.171875 6.390625 31.78125 6.390625 
Q 39.453125 6.390625 43.28125 13.890625 
Q 47.125 21.390625 47.125 36.375 
Q 47.125 51.421875 43.28125 58.90625 
Q 39.453125 66.40625 31.78125 66.40625 
z
M 31.78125 74.21875 
Q 44.046875 74.21875 50.515625 64.515625 
Q 56.984375 54.828125 56.984375 36.375 
Q 56.984375 17.96875 50.515625 8.265625 
Q 44.046875 -1.421875 31.78125 -1.421875 
Q 19.53125 -1.421875 13.0625 8.265625 
Q 6.59375 17.96875 6.59375 36.375 
Q 6.59375 54.828125 13.0625 64.515625 
Q 19.53125 74.21875 31.78125 74.21875 
z
" id="DejaVuSans-48"/>
      </defs>
      <g transform="translate(58.658182 264.618125)scale(0.12 -0.12)">
       <use transform="translate(0 0.765625)" xlink:href="#DejaVuSans-49"/>
       <use transform="translate(63.623047 0.765625)" xlink:href="#DejaVuSans-48"/>
       <use transform="translate(128.203125 39.046875)scale(0.7)" xlink:href="#DejaVuSans-48"/>
      </g>
     </g>
    </g>
    <g id="xtick_2">
     <g id="line2d_2">
      <g>
       <use style="stroke:#000000;stroke-width:0.8;" x="273.302568" xlink:href="#m70f257e7b5" y="252"/>
      </g>
     </g>
     <g id="text_2">
      <!-- $\mathdefault{10^{1}}$ -->
      <g transform="translate(262.742568 264.618125)scale(0.12 -0.12)">
       <use transform="translate(0 0.684375)" xlink:href="#DejaVuSans-49"/>
       <use transform="translate(63.623047 0.684375)" xlink:href="#DejaVuSans-48"/>
       <use transform="translate(128.203125 38.965625)scale(0.7)" xlink:href="#DejaVuSans-49"/>
      </g>
     </g>
    </g>
    <g id="xtick_3">
     <g id="line2d_3">
      <defs>
       <path d="M 0 0 
L 0 -2 
" id="m33aa96b841" style="stroke:#000000;stroke-width:0.6;"/>
      </defs>
      <g>
       <use style="stroke:#000000;stroke-width:0.6;" x="59.879792" xlink:href="#m33aa96b841" y="252"/>
      </g>
     </g>
    </g>
    <g id="xtick_4">
     <g id="line2d_4">
      <g>
       <use style="stroke:#000000;stroke-width:0.6;" x="130.653704" xlink:href="#m33aa96b841" y="252"/>
      </g>
     </g>
    </g>
    <g id="xtick_5">
     <g id="line2d_5">
      <g>
       <use style="stroke:#000000;stroke-width:0.6;" x="166.59118" xlink:href="#m33aa96b841" y="252"/>
      </g>
     </g>
    </g>
    <g id="xtick_6">
     <g id="line2d_6">
      <g>
       <use style="stroke:#000000;stroke-width:0.6;" x="192.089226" xlink:href="#m33aa96b841" y="252"/>
      </g>
     </g>
    </g>
    <g id="xtick_7">
     <g id="line2d_7">
      <g>
       <use style="stroke:#000000;stroke-width:0.6;" x="211.867046" xlink:href="#m33aa96b841" y="252"/>
      </g>
     </g>
    </g>
    <g id="xtick_8">
     <g id="line2d_8">
      <g>
       <use style="stroke:#000000;stroke-width:0.6;" x="228.026702" xlink:href="#m33aa96b841" y="252"/>
      </g>
     </g>
    </g>
    <g id="xtick_9">
     <g id="line2d_9">
      <g>
       <use style="stroke:#000000;stroke-width:0.6;" x="241.689497" xlink:href="#m33aa96b841" y="252"/>
      </g>
     </g>
    </g>
    <g id="xtick_10">
     <g id="line2d_10">
      <g>
       <use style="stroke:#000000;stroke-width:0.6;" x="253.524748" xlink:href="#m33aa96b841" y="252"/>
      </g>
     </g>
    </g>
    <g id="xtick_11">
     <g id="line2d_11">
      <g>
       <use style="stroke:#000000;stroke-width:0.6;" x="263.964179" xlink:href="#m33aa96b841" y="252"/>
      </g>
     </g>
    </g>
    <g id="xtick_12">
     <g id="line2d_12">
      <g>
       <use style="stroke:#000000;stroke-width:0.6;" x="334.73809" xlink:href="#m33aa96b841" y="252"/>
      </g>
     </g>
    </g>
    <g id="xtick_13">
     <g id="line2d_13">
      <g>
       <use style="stroke:#000000;stroke-width:0.6;" x="370.675567" xlink:href="#m33aa96b841" y="252"/>
      </g>
     </g>
    </g>
    <g id="text_3">
     <!-- Site $i$ -->
     <defs>
      <path d="M 53.515625 70.515625 
L 53.515625 60.890625 
Q 47.90625 63.578125 42.921875 64.890625 
Q 37.9375 66.21875 33.296875 66.21875 
Q 25.25 66.21875 20.875 63.09375 
Q 16.5 59.96875 16.5 54.203125 
Q 16.5 49.359375 19.40625 46.890625 
Q 22.3125 44.4375 30.421875 42.921875 
L 36.375 41.703125 
Q 47.40625 39.59375 52.65625 34.296875 
Q 57.90625 29 57.90625 20.125 
Q 57.90625 9.515625 50.796875 4.046875 
Q 43.703125 -1.421875 29.984375 -1.421875 
Q 24.8125 -1.421875 18.96875 -0.25 
Q 13.140625 0.921875 6.890625 3.21875 
L 6.890625 13.375 
Q 12.890625 10.015625 18.65625 8.296875 
Q 24.421875 6.59375 29.984375 6.59375 
Q 38.421875 6.59375 43.015625 9.90625 
Q 47.609375 13.234375 47.609375 19.390625 
Q 47.609375 24.75 44.3125 27.78125 
Q 41.015625 30.8125 33.5 32.328125 
L 27.484375 33.5 
Q 16.453125 35.6875 11.515625 40.375 
Q 6.59375 45.0625 6.59375 53.421875 
Q 6.59375 63.09375 13.40625 68.65625 
Q 20.21875 74.21875 32.171875 74.21875 
Q 37.3125 74.21875 42.625 73.28125 
Q 47.953125 72.359375 53.515625 70.515625 
z
" id="DejaVuSans-83"/>
      <path d="M 9.421875 54.6875 
L 18.40625 54.6875 
L 18.40625 0 
L 9.421875 0 
z
M 9.421875 75.984375 
L 18.40625 75.984375 
L 18.40625 64.59375 
L 9.421875 64.59375 
z
" id="DejaVuSans-105"/>
      <path d="M 18.3125 70.21875 
L 18.3125 54.6875 
L 36.8125 54.6875 
L 36.8125 47.703125 
L 18.3125 47.703125 
L 18.3125 18.015625 
Q 18.3125 11.328125 20.140625 9.421875 
Q 21.96875 7.515625 27.59375 7.515625 
L 36.8125 7.515625 
L 36.8125 0 
L 27.59375 0 
Q 17.1875 0 13.234375 3.875 
Q 9.28125 7.765625 9.28125 18.015625 
L 9.28125 47.703125 
L 2.6875 47.703125 
L 2.6875 54.6875 
L 9.28125 54.6875 
L 9.28125 70.21875 
z
" id="DejaVuSans-116"/>
      <path d="M 56.203125 29.59375 
L 56.203125 25.203125 
L 14.890625 25.203125 
Q 15.484375 15.921875 20.484375 11.0625 
Q 25.484375 6.203125 34.421875 6.203125 
Q 39.59375 6.203125 44.453125 7.46875 
Q 49.3125 8.734375 54.109375 11.28125 
L 54.109375 2.78125 
Q 49.265625 0.734375 44.1875 -0.34375 
Q 39.109375 -1.421875 33.890625 -1.421875 
Q 20.796875 -1.421875 13.15625 6.1875 
Q 5.515625 13.8125 5.515625 26.8125 
Q 5.515625 40.234375 12.765625 48.109375 
Q 20.015625 56 32.328125 56 
Q 43.359375 56 49.78125 48.890625 
Q 56.203125 41.796875 56.203125 29.59375 
z
M 47.21875 32.234375 
Q 47.125 39.59375 43.09375 43.984375 
Q 39.0625 48.390625 32.421875 48.390625 
Q 24.90625 48.390625 20.390625 44.140625 
Q 15.875 39.890625 15.1875 32.171875 
z
" id="DejaVuSans-101"/>
      <path id="DejaVuSans-32"/>
      <path d="M 18.3125 75.984375 
L 27.296875 75.984375 
L 25.09375 64.59375 
L 16.109375 64.59375 
z
M 14.203125 54.6875 
L 23.1875 54.6875 
L 12.5 0 
L 3.515625 0 
z
" id="DejaVuSans-Oblique-105"/>
     </defs>
     <g transform="translate(203.76 281.751562)scale(0.14 -0.14)">
      <use transform="translate(0 0.015625)" xlink:href="#DejaVuSans-83"/>
      <use transform="translate(63.476562 0.015625)" xlink:href="#DejaVuSans-105"/>
      <use transform="translate(91.259766 0.015625)" xlink:href="#DejaVuSans-116"/>
      <use transform="translate(130.46875 0.015625)" xlink:href="#DejaVuSans-101"/>
      <use transform="translate(191.992188 0.015625)" xlink:href="#DejaVuSans-32"/>
      <use transform="translate(223.779297 0.015625)" xlink:href="#DejaVuSans-Oblique-105"/>
     </g>
    </g>
   </g>
   <g id="matplotlib.axis_2">
    <g id="ytick_1">
     <g id="line2d_14">
      <defs>
       <path d="M 0 0 
L 3.5 0 
" id="mfbd70ff253" style="stroke:#000000;stroke-width:0.8;"/>
      </defs>
      <g>
       <use style="stroke:#000000;stroke-width:0.8;" x="54" xlink:href="#mfbd70ff253" y="163.436069"/>
      </g>
     </g>
     <g id="text_4">
      <!-- $\mathdefault{10^{-1}}$ -->
      <defs>
       <path d="M 10.59375 35.5 
L 73.1875 35.5 
L 73.1875 27.203125 
L 10.59375 27.203125 
z
" id="DejaVuSans-8722"/>
      </defs>
      <g transform="translate(22.3 167.995131)scale(0.12 -0.12)">
       <use transform="translate(0 0.684375)" xlink:href="#DejaVuSans-49"/>
       <use transform="translate(63.623047 0.684375)" xlink:href="#DejaVuSans-48"/>
       <use transform="translate(128.203125 38.965625)scale(0.7)" xlink:href="#DejaVuSans-8722"/>
       <use transform="translate(186.855469 38.965625)scale(0.7)" xlink:href="#DejaVuSans-49"/>
      </g>
     </g>
    </g>
    <g id="ytick_2">
     <g id="line2d_15">
      <defs>
       <path d="M 0 0 
L 2 0 
" id="m3789e1c05e" style="stroke:#000000;stroke-width:0.6;"/>
      </defs>
      <g>
       <use style="stroke:#000000;stroke-width:0.6;" x="54" xlink:href="#m3789e1c05e" y="243.648583"/>
      </g>
     </g>
     <g id="text_5">
      <!-- $\mathdefault{6\times10^{-2}}$ -->
      <defs>
       <path d="M 33.015625 40.375 
Q 26.375 40.375 22.484375 35.828125 
Q 18.609375 31.296875 18.609375 23.390625 
Q 18.609375 15.53125 22.484375 10.953125 
Q 26.375 6.390625 33.015625 6.390625 
Q 39.65625 6.390625 43.53125 10.953125 
Q 47.40625 15.53125 47.40625 23.390625 
Q 47.40625 31.296875 43.53125 35.828125 
Q 39.65625 40.375 33.015625 40.375 
z
M 52.59375 71.296875 
L 52.59375 62.3125 
Q 48.875 64.0625 45.09375 64.984375 
Q 41.3125 65.921875 37.59375 65.921875 
Q 27.828125 65.921875 22.671875 59.328125 
Q 17.53125 52.734375 16.796875 39.40625 
Q 19.671875 43.65625 24.015625 45.921875 
Q 28.375 48.1875 33.59375 48.1875 
Q 44.578125 48.1875 50.953125 41.515625 
Q 57.328125 34.859375 57.328125 23.390625 
Q 57.328125 12.15625 50.6875 5.359375 
Q 44.046875 -1.421875 33.015625 -1.421875 
Q 20.359375 -1.421875 13.671875 8.265625 
Q 6.984375 17.96875 6.984375 36.375 
Q 6.984375 53.65625 15.1875 63.9375 
Q 23.390625 74.21875 37.203125 74.21875 
Q 40.921875 74.21875 44.703125 73.484375 
Q 48.484375 72.75 52.59375 71.296875 
z
" id="DejaVuSans-54"/>
       <path d="M 70.125 53.71875 
L 47.796875 31.296875 
L 70.125 8.984375 
L 64.3125 3.078125 
L 41.890625 25.484375 
L 19.484375 3.078125 
L 13.71875 8.984375 
L 35.984375 31.296875 
L 13.71875 53.71875 
L 19.484375 59.625 
L 41.890625 37.203125 
L 64.3125 59.625 
z
" id="DejaVuSans-215"/>
       <path d="M 19.1875 8.296875 
L 53.609375 8.296875 
L 53.609375 0 
L 7.328125 0 
L 7.328125 8.296875 
Q 12.9375 14.109375 22.625 23.890625 
Q 32.328125 33.6875 34.8125 36.53125 
Q 39.546875 41.84375 41.421875 45.53125 
Q 43.3125 49.21875 43.3125 52.78125 
Q 43.3125 58.59375 39.234375 62.25 
Q 35.15625 65.921875 28.609375 65.921875 
Q 23.96875 65.921875 18.8125 64.3125 
Q 13.671875 62.703125 7.8125 59.421875 
L 7.8125 69.390625 
Q 13.765625 71.78125 18.9375 73 
Q 24.125 74.21875 28.421875 74.21875 
Q 39.75 74.21875 46.484375 68.546875 
Q 53.21875 62.890625 53.21875 53.421875 
Q 53.21875 48.921875 51.53125 44.890625 
Q 49.859375 40.875 45.40625 35.40625 
Q 44.1875 33.984375 37.640625 27.21875 
Q 31.109375 20.453125 19.1875 8.296875 
z
" id="DejaVuSans-50"/>
      </defs>
      <g transform="translate(0.08 248.207646)scale(0.12 -0.12)">
       <use transform="translate(0 0.765625)" xlink:href="#DejaVuSans-54"/>
       <use transform="translate(83.105469 0.765625)" xlink:href="#DejaVuSans-215"/>
       <use transform="translate(186.376953 0.765625)" xlink:href="#DejaVuSans-49"/>
       <use transform="translate(250 0.765625)" xlink:href="#DejaVuSans-48"/>
       <use transform="translate(314.580078 39.046875)scale(0.7)" xlink:href="#DejaVuSans-8722"/>
       <use transform="translate(373.232422 39.046875)scale(0.7)" xlink:href="#DejaVuSans-50"/>
      </g>
     </g>
    </g>
    <g id="ytick_3">
     <g id="line2d_16">
      <g>
       <use style="stroke:#000000;stroke-width:0.6;" x="54" xlink:href="#m3789e1c05e" y="219.443036"/>
      </g>
     </g>
    </g>
    <g id="ytick_4">
     <g id="line2d_17">
      <g>
       <use style="stroke:#000000;stroke-width:0.6;" x="54" xlink:href="#m3789e1c05e" y="198.475238"/>
      </g>
     </g>
    </g>
    <g id="ytick_5">
     <g id="line2d_18">
      <g>
       <use style="stroke:#000000;stroke-width:0.6;" x="54" xlink:href="#m3789e1c05e" y="179.980329"/>
      </g>
     </g>
    </g>
    <g id="ytick_6">
     <g id="line2d_19">
      <g>
       <use style="stroke:#000000;stroke-width:0.6;" x="54" xlink:href="#m3789e1c05e" y="54.594468"/>
      </g>
     </g>
     <g id="text_6">
      <!-- $\mathdefault{2\times10^{-1}}$ -->
      <g transform="translate(0.08 59.153531)scale(0.12 -0.12)">
       <use transform="translate(0 0.684375)" xlink:href="#DejaVuSans-50"/>
       <use transform="translate(83.105469 0.684375)" xlink:href="#DejaVuSans-215"/>
       <use transform="translate(186.376953 0.684375)" xlink:href="#DejaVuSans-49"/>
       <use transform="translate(250 0.684375)" xlink:href="#DejaVuSans-48"/>
       <use transform="translate(314.580078 38.965625)scale(0.7)" xlink:href="#DejaVuSans-8722"/>
       <use transform="translate(373.232422 38.965625)scale(0.7)" xlink:href="#DejaVuSans-49"/>
      </g>
     </g>
    </g>
    <g id="text_7">
     <!-- $\langle\sigma_i\sigma_0\rangle_c$ -->
     <defs>
      <path d="M 8.9375 31.34375 
L 22.703125 75.875 
L 31 75.875 
L 17.234375 31.34375 
L 31 -13.1875 
L 22.703125 -13.1875 
z
" id="DejaVuSans-10216"/>
      <path d="M 34.671875 47.5625 
Q 27.25 47.5625 22.21875 42.1875 
Q 16.890625 36.578125 15.140625 27.296875 
Q 13.1875 17.484375 16.3125 11.8125 
Q 19.390625 6.203125 26.65625 6.203125 
Q 33.84375 6.203125 39.109375 11.859375 
Q 44.4375 17.53125 46.34375 27.296875 
Q 48.046875 36.234375 45.015625 42.1875 
Q 42.1875 47.5625 34.671875 47.5625 
z
M 36.078125 54.734375 
L 65.921875 54.6875 
L 64.15625 45.703125 
L 54.109375 45.703125 
Q 57.90625 38.09375 55.859375 27.296875 
Q 53.21875 13.875 45.0625 6.25 
Q 36.859375 -1.421875 25.140625 -1.421875 
Q 13.375 -1.421875 8.203125 6.25 
Q 3.03125 13.875 5.671875 27.296875 
Q 8.25 40.765625 16.40625 48.390625 
Q 23.1875 54.734375 36.078125 54.734375 
z
" id="DejaVuSans-Oblique-963"/>
      <path d="M 30.078125 31.34375 
L 16.3125 -13.1875 
L 8.015625 -13.1875 
L 21.78125 31.34375 
L 8.015625 75.875 
L 16.3125 75.875 
z
" id="DejaVuSans-10217"/>
      <path d="M 53.609375 52.59375 
L 51.8125 43.703125 
Q 48.578125 46.046875 44.9375 47.21875 
Q 41.3125 48.390625 37.40625 48.390625 
Q 33.109375 48.390625 29.21875 46.875 
Q 25.34375 45.359375 22.703125 42.578125 
Q 18.5 38.328125 16.203125 32.609375 
Q 13.921875 26.90625 13.921875 20.796875 
Q 13.921875 13.421875 17.609375 9.8125 
Q 21.296875 6.203125 28.8125 6.203125 
Q 32.515625 6.203125 36.6875 7.328125 
Q 40.875 8.453125 45.40625 10.6875 
L 43.703125 1.8125 
Q 39.796875 0.203125 35.671875 -0.609375 
Q 31.546875 -1.421875 27.203125 -1.421875 
Q 16.3125 -1.421875 10.453125 4.015625 
Q 4.59375 9.46875 4.59375 19.578125 
Q 4.59375 28.078125 7.640625 35.234375 
Q 10.6875 42.390625 16.703125 48.09375 
Q 20.796875 52 26.3125 54 
Q 31.84375 56 38.375 56 
Q 42.1875 56 45.9375 55.140625 
Q 49.703125 54.296875 53.609375 52.59375 
z
" id="DejaVuSans-Oblique-99"/>
     </defs>
     <g transform="translate(-7.2475 168.64)rotate(-90)scale(0.16 -0.16)">
      <use transform="translate(0 0.125)" xlink:href="#DejaVuSans-10216"/>
      <use transform="translate(39.013672 0.125)" xlink:href="#DejaVuSans-Oblique-963"/>
      <use transform="translate(102.392578 -16.28125)scale(0.7)" xlink:href="#DejaVuSans-Oblique-105"/>
      <use transform="translate(124.575195 0.125)" xlink:href="#DejaVuSans-Oblique-963"/>
      <use transform="translate(187.954102 -16.28125)scale(0.7)" xlink:href="#DejaVuSans-48"/>
      <use transform="translate(235.224609 0.125)" xlink:href="#DejaVuSans-10217"/>
      <use transform="translate(275.195312 -16.28125)scale(0.7)" xlink:href="#DejaVuSans-Oblique-99"/>
     </g>
    </g>
   </g>
   <g id="line2d_20">
    <defs>
     <path d="M 0 2.5 
C 0.663008 2.5 1.29895 2.236584 1.767767 1.767767 
C 2.236584 1.29895 2.5 0.663008 2.5 0 
C 2.5 -0.663008 2.236584 -1.29895 1.767767 -1.767767 
C 1.29895 -2.236584 0.663008 -2.5 0 -2.5 
C -0.663008 -2.5 -1.29895 -2.236584 -1.767767 -1.767767 
C -2.236584 -1.29895 -2.5 -0.663008 -2.5 0 
C -2.5 0.663008 -2.236584 1.29895 -1.767767 1.767767 
C -1.29895 2.236584 -0.663008 2.5 0 2.5 
z
" id="m99a059c393" style="stroke:#1f77b4;"/>
    </defs>
    <g clip-path="url(#p33dab87276)">
     <use style="fill:#1f77b4;stroke:#1f77b4;" x="-1" xlink:href="#m99a059c393" y="119.162944"/>
     <use style="fill:#1f77b4;stroke:#1f77b4;" x="69.218182" xlink:href="#m99a059c393" y="119.188661"/>
     <use style="fill:#1f77b4;stroke:#1f77b4;" x="130.653704" xlink:href="#m99a059c393" y="143.738796"/>
     <use style="fill:#1f77b4;stroke:#1f77b4;" x="166.59118" xlink:href="#m99a059c393" y="157.870329"/>
     <use style="fill:#1f77b4;stroke:#1f77b4;" x="192.089226" xlink:href="#m99a059c393" y="171.461846"/>
     <use style="fill:#1f77b4;stroke:#1f77b4;" x="211.867046" xlink:href="#m99a059c393" y="178.033177"/>
     <use style="fill:#1f77b4;stroke:#1f77b4;" x="228.026702" xlink:href="#m99a059c393" y="189.338668"/>
     <use style="fill:#1f77b4;stroke:#1f77b4;" x="241.689497" xlink:href="#m99a059c393" y="192.304637"/>
     <use style="fill:#1f77b4;stroke:#1f77b4;" x="253.524748" xlink:href="#m99a059c393" y="202.684109"/>
     <use style="fill:#1f77b4;stroke:#1f77b4;" x="263.964179" xlink:href="#m99a059c393" y="203.342598"/>
     <use style="fill:#1f77b4;stroke:#1f77b4;" x="273.302568" xlink:href="#m99a059c393" y="212.929178"/>
     <use style="fill:#1f77b4;stroke:#1f77b4;" x="281.750169" xlink:href="#m99a059c393" y="211.661021"/>
     <use style="fill:#1f77b4;stroke:#1f77b4;" x="289.462224" xlink:href="#m99a059c393" y="220.227502"/>
     <use style="fill:#1f77b4;stroke:#1f77b4;" x="296.556627" xlink:href="#m99a059c393" y="217.229349"/>
     <use style="fill:#1f77b4;stroke:#1f77b4;" x="303.125019" xlink:href="#m99a059c393" y="224.644172"/>
     <use style="fill:#1f77b4;stroke:#1f77b4;" x="309.240045" xlink:href="#m99a059c393" y="219.877731"/>
     <use style="fill:#1f77b4;stroke:#1f77b4;" x="314.96027" xlink:href="#m99a059c393" y="226.009753"/>
     <use style="fill:#1f77b4;stroke:#1f77b4;" x="320.333595" xlink:href="#m99a059c393" y="219.707199"/>
     <use style="fill:#1f77b4;stroke:#1f77b4;" x="325.399701" xlink:href="#m99a059c393" y="224.503183"/>
     <use style="fill:#1f77b4;stroke:#1f77b4;" x="330.191826" xlink:href="#m99a059c393" y="216.844723"/>
     <use style="fill:#1f77b4;stroke:#1f77b4;" x="334.73809" xlink:href="#m99a059c393" y="219.836667"/>
     <use style="fill:#1f77b4;stroke:#1f77b4;" x="339.062495" xlink:href="#m99a059c393" y="211.159923"/>
     <use style="fill:#1f77b4;stroke:#1f77b4;" x="343.185691" xlink:href="#m99a059c393" y="212.591358"/>
     <use style="fill:#1f77b4;stroke:#1f77b4;" x="347.125572" xlink:href="#m99a059c393" y="202.830067"/>
     <use style="fill:#1f77b4;stroke:#1f77b4;" x="350.897746" xlink:href="#m99a059c393" y="202.359668"/>
     <use style="fill:#1f77b4;stroke:#1f77b4;" x="354.515911" xlink:href="#m99a059c393" y="191.961879"/>
     <use style="fill:#1f77b4;stroke:#1f77b4;" x="357.992149" xlink:href="#m99a059c393" y="189.139868"/>
     <use style="fill:#1f77b4;stroke:#1f77b4;" x="361.337178" xlink:href="#m99a059c393" y="177.631968"/>
     <use style="fill:#1f77b4;stroke:#1f77b4;" x="364.560541" xlink:href="#m99a059c393" y="171.245689"/>
     <use style="fill:#1f77b4;stroke:#1f77b4;" x="367.67078" xlink:href="#m99a059c393" y="157.443336"/>
     <use style="fill:#1f77b4;stroke:#1f77b4;" x="370.675567" xlink:href="#m99a059c393" y="143.621809"/>
     <use style="fill:#1f77b4;stroke:#1f77b4;" x="373.581818" xlink:href="#m99a059c393" y="118.951101"/>
    </g>
   </g>
   <g id="line2d_21">
    <path clip-path="url(#p33dab87276)" d="M 69.218182 117.248752 
L 80.941452 122.493942 
L 91.293689 127.125709 
L 100.562262 131.272626 
L 108.952698 135.02665 
L 116.617089 138.455828 
L 123.67114 141.61193 
L 130.20493 144.535259 
L 136.289956 147.257803 
L 141.983924 149.805381 
L 147.334074 152.199129 
L 152.379575 154.456572 
L 157.15326 156.5924 
L 161.682924 158.619049 
L 165.992308 160.54714 
L 170.101846 162.385817 
L 174.029255 164.143007 
L 177.789995 165.825626 
L 181.397639 167.439747 
L 184.864165 168.990729 
L 188.200199 170.483328 
L 191.415209 171.921778 
L 194.517671 173.309872 
L 197.515199 174.651017 
L 200.414659 175.948285 
L 203.222265 177.204455 
L 205.943659 178.422053 
L 208.583978 179.603377 
L 211.147913 180.750525 
L 213.63976 181.86542 
L 216.063462 182.949825 
L 218.422647 184.005365 
L 220.720661 185.033535 
L 222.960597 186.03572 
L 225.145316 187.013201 
L 227.277478 187.967166 
L 229.35955 188.898721 
L 231.393833 189.808894 
L 233.382471 190.698644 
L 235.327468 191.568869 
L 237.230698 192.420406 
L 239.093917 193.254042 
L 240.918773 194.070513 
L 242.706813 194.870513 
L 244.459495 195.654693 
L 246.178189 196.423666 
L 247.864188 197.17801 
L 249.518714 197.918273 
L 251.142919 198.64497 
L 252.737895 199.35859 
L 254.304676 200.059594 
L 255.844241 200.748422 
L 257.357519 201.425488 
L 258.845394 202.091188 
L 260.308703 202.745898 
L 261.748245 203.389973 
L 263.16478 204.023755 
L 264.559032 204.647567 
L 265.93169 205.261718 
L 267.283413 205.866502 
L 268.614831 206.462201 
L 269.926544 207.049083 
L 271.219128 207.627407 
L 272.493131 208.197418 
L 273.749082 208.759351 
L 274.987483 209.313433 
L 276.20882 209.85988 
L 277.413555 210.398899 
L 278.602134 210.93069 
L 279.774985 211.455443 
L 280.932518 211.973343 
L 282.075129 212.484567 
L 283.203197 212.989283 
L 284.317088 213.487657 
L 285.417154 213.979845 
L 286.503733 214.465999 
L 287.577153 214.946265 
L 288.637728 215.420785 
L 289.685762 215.889693 
L 290.721549 216.353122 
L 291.74537 216.811197 
L 292.757501 217.264041 
L 293.758203 217.711772 
L 294.747734 218.154505 
L 295.726338 218.592349 
L 296.694256 219.025412 
L 297.651718 219.453797 
L 298.598946 219.877603 
L 299.536159 220.296928 
L 300.463565 220.711865 
L 301.381368 221.122506 
L 302.289764 221.528938 
L 303.188944 221.931246 
L 304.079094 222.329514 
L 304.960393 222.723822 
L 305.833014 223.114248 
L 306.697128 223.500867 
L 307.552899 223.883754 
L 308.400486 224.262979 
L 309.240045 224.638611 
" style="fill:none;stroke:#1f77b4;stroke-dasharray:1.5,2.475;stroke-dashoffset:0;stroke-width:1.5;"/>
   </g>
   <g id="line2d_22">
    <defs>
     <path d="M 0 2.5 
C 0.663008 2.5 1.29895 2.236584 1.767767 1.767767 
C 2.236584 1.29895 2.5 0.663008 2.5 0 
C 2.5 -0.663008 2.236584 -1.29895 1.767767 -1.767767 
C 1.29895 -2.236584 0.663008 -2.5 0 -2.5 
C -0.663008 -2.5 -1.29895 -2.236584 -1.767767 -1.767767 
C -2.236584 -1.29895 -2.5 -0.663008 -2.5 0 
C -2.5 0.663008 -2.236584 1.29895 -1.767767 1.767767 
C -1.29895 2.236584 -0.663008 2.5 0 2.5 
z
" id="m678f7e2503" style="stroke:#ff7f0e;"/>
    </defs>
    <g clip-path="url(#p33dab87276)">
     <use style="fill:#ff7f0e;stroke:#ff7f0e;" x="-1" xlink:href="#m678f7e2503" y="115.506474"/>
     <use style="fill:#ff7f0e;stroke:#ff7f0e;" x="69.218182" xlink:href="#m678f7e2503" y="115.526109"/>
     <use style="fill:#ff7f0e;stroke:#ff7f0e;" x="130.653704" xlink:href="#m678f7e2503" y="139.442395"/>
     <use style="fill:#ff7f0e;stroke:#ff7f0e;" x="166.59118" xlink:href="#m678f7e2503" y="148.916905"/>
     <use style="fill:#ff7f0e;stroke:#ff7f0e;" x="192.089226" xlink:href="#m678f7e2503" y="160.319022"/>
     <use style="fill:#ff7f0e;stroke:#ff7f0e;" x="211.867046" xlink:href="#m678f7e2503" y="165.59795"/>
     <use style="fill:#ff7f0e;stroke:#ff7f0e;" x="228.026702" xlink:href="#m678f7e2503" y="173.625379"/>
     <use style="fill:#ff7f0e;stroke:#ff7f0e;" x="241.689497" xlink:href="#m678f7e2503" y="177.797445"/>
     <use style="fill:#ff7f0e;stroke:#ff7f0e;" x="253.524748" xlink:href="#m678f7e2503" y="184.026593"/>
     <use style="fill:#ff7f0e;stroke:#ff7f0e;" x="263.964179" xlink:href="#m678f7e2503" y="187.744266"/>
     <use style="fill:#ff7f0e;stroke:#ff7f0e;" x="273.302568" xlink:href="#m678f7e2503" y="192.675308"/>
     <use style="fill:#ff7f0e;stroke:#ff7f0e;" x="281.750169" xlink:href="#m678f7e2503" y="195.736871"/>
     <use style="fill:#ff7f0e;stroke:#ff7f0e;" x="289.462224" xlink:href="#m678f7e2503" y="199.191332"/>
     <use style="fill:#ff7f0e;stroke:#ff7f0e;" x="296.556627" xlink:href="#m678f7e2503" y="201.257013"/>
     <use style="fill:#ff7f0e;stroke:#ff7f0e;" x="303.125019" xlink:href="#m678f7e2503" y="203.223614"/>
     <use style="fill:#ff7f0e;stroke:#ff7f0e;" x="309.240045" xlink:href="#m678f7e2503" y="204.145916"/>
     <use style="fill:#ff7f0e;stroke:#ff7f0e;" x="314.96027" xlink:href="#m678f7e2503" y="204.669458"/>
     <use style="fill:#ff7f0e;stroke:#ff7f0e;" x="320.333595" xlink:href="#m678f7e2503" y="204.215073"/>
     <use style="fill:#ff7f0e;stroke:#ff7f0e;" x="325.399701" xlink:href="#m678f7e2503" y="203.390658"/>
     <use style="fill:#ff7f0e;stroke:#ff7f0e;" x="330.191826" xlink:href="#m678f7e2503" y="201.514689"/>
     <use style="fill:#ff7f0e;stroke:#ff7f0e;" x="334.73809" xlink:href="#m678f7e2503" y="199.4827"/>
     <use style="fill:#ff7f0e;stroke:#ff7f0e;" x="339.062495" xlink:href="#m678f7e2503" y="196.16513"/>
     <use style="fill:#ff7f0e;stroke:#ff7f0e;" x="343.185691" xlink:href="#m678f7e2503" y="193.110823"/>
     <use style="fill:#ff7f0e;stroke:#ff7f0e;" x="347.125572" xlink:href="#m678f7e2503" y="188.084447"/>
     <use style="fill:#ff7f0e;stroke:#ff7f0e;" x="350.897746" xlink:href="#m678f7e2503" y="184.525494"/>
     <use style="fill:#ff7f0e;stroke:#ff7f0e;" x="354.515911" xlink:href="#m678f7e2503" y="178.275271"/>
     <use style="fill:#ff7f0e;stroke:#ff7f0e;" x="357.992149" xlink:href="#m678f7e2503" y="173.958994"/>
     <use style="fill:#ff7f0e;stroke:#ff7f0e;" x="361.337178" xlink:href="#m678f7e2503" y="165.810387"/>
     <use style="fill:#ff7f0e;stroke:#ff7f0e;" x="364.560541" xlink:href="#m678f7e2503" y="160.62575"/>
     <use style="fill:#ff7f0e;stroke:#ff7f0e;" x="367.67078" xlink:href="#m678f7e2503" y="148.936085"/>
     <use style="fill:#ff7f0e;stroke:#ff7f0e;" x="370.675567" xlink:href="#m678f7e2503" y="139.409472"/>
     <use style="fill:#ff7f0e;stroke:#ff7f0e;" x="373.581818" xlink:href="#m678f7e2503" y="115.478315"/>
    </g>
   </g>
   <g id="line2d_23">
    <path clip-path="url(#p33dab87276)" d="M 69.218182 114.786522 
L 80.941452 119.178805 
L 91.293689 123.057412 
L 100.562262 126.530009 
L 108.952698 129.673601 
L 116.617089 132.545169 
L 123.67114 135.188066 
L 130.20493 137.636039 
L 136.289956 139.915877 
L 141.983924 142.0492 
L 147.334074 144.053707 
L 152.379575 145.944072 
L 157.15326 147.732599 
L 161.682924 149.429699 
L 165.992308 151.044269 
L 170.101846 152.583963 
L 174.029255 154.05542 
L 177.789995 155.464433 
L 181.397639 156.816086 
L 184.864165 158.114867 
L 188.200199 159.364758 
L 191.415209 160.569306 
L 194.517671 161.731685 
L 197.515199 162.85475 
L 200.414659 163.941072 
L 203.222265 164.99298 
L 205.943659 166.012587 
L 208.583978 167.001819 
L 211.147913 167.962432 
L 213.63976 168.896037 
L 216.063462 169.80411 
L 218.422647 170.688011 
L 220.720661 171.548993 
L 222.960597 172.388215 
L 225.145316 173.20675 
L 227.277478 174.005594 
L 229.35955 174.785671 
L 231.393833 175.547842 
L 233.382471 176.292913 
L 235.327468 177.021632 
L 237.230698 177.734703 
L 239.093917 178.432784 
L 240.918773 179.116491 
L 242.706813 179.786405 
L 244.459495 180.443071 
L 246.178189 181.087003 
L 247.864188 181.718686 
L 249.518714 182.338576 
L 251.142919 182.947107 
L 252.737895 183.544686 
L 254.304676 184.131702 
L 255.844241 184.708521 
L 257.357519 185.275492 
L 258.845394 185.832944 
L 260.308703 186.381193 
L 261.748245 186.920537 
L 263.16478 187.451261 
L 264.559032 187.973636 
L 265.93169 188.487922 
L 267.283413 188.994363 
L 268.614831 189.493197 
L 269.926544 189.984648 
L 271.219128 190.468932 
L 272.493131 190.946255 
L 273.749082 191.416814 
L 274.987483 191.880798 
L 276.20882 192.338388 
L 277.413555 192.789759 
L 278.602134 193.235076 
L 279.774985 193.674501 
L 280.932518 194.108187 
L 282.075129 194.536281 
L 283.203197 194.958927 
L 284.317088 195.376262 
L 285.417154 195.788416 
L 286.503733 196.195518 
L 287.577153 196.59769 
L 288.637728 196.995049 
L 289.685762 197.387709 
L 290.721549 197.77578 
L 291.74537 198.159369 
L 292.757501 198.538578 
L 293.758203 198.913504 
L 294.747734 199.284246 
L 295.726338 199.650893 
L 296.694256 200.013537 
L 297.651718 200.372263 
L 298.598946 200.727155 
L 299.536159 201.078295 
L 300.463565 201.42576 
L 301.381368 201.769627 
L 302.289764 202.10997 
L 303.188944 202.44686 
L 304.079094 202.780367 
L 304.960393 203.110558 
L 305.833014 203.437497 
L 306.697128 203.761249 
L 307.552899 204.081876 
L 308.400486 204.399436 
L 309.240045 204.713988 
" style="fill:none;stroke:#ff7f0e;stroke-dasharray:1.5,2.475;stroke-dashoffset:0;stroke-width:1.5;"/>
   </g>
   <g id="line2d_24">
    <defs>
     <path d="M 0 2.5 
C 0.663008 2.5 1.29895 2.236584 1.767767 1.767767 
C 2.236584 1.29895 2.5 0.663008 2.5 0 
C 2.5 -0.663008 2.236584 -1.29895 1.767767 -1.767767 
C 1.29895 -2.236584 0.663008 -2.5 0 -2.5 
C -0.663008 -2.5 -1.29895 -2.236584 -1.767767 -1.767767 
C -2.236584 -1.29895 -2.5 -0.663008 -2.5 0 
C -2.5 0.663008 -2.236584 1.29895 -1.767767 1.767767 
C -1.29895 2.236584 -0.663008 2.5 0 2.5 
z
" id="m8c2f86ef83" style="stroke:#2ca02c;"/>
    </defs>
    <g clip-path="url(#p33dab87276)">
     <use style="fill:#2ca02c;stroke:#2ca02c;" x="-1" xlink:href="#m8c2f86ef83" y="110.317782"/>
     <use style="fill:#2ca02c;stroke:#2ca02c;" x="69.218182" xlink:href="#m8c2f86ef83" y="110.332065"/>
     <use style="fill:#2ca02c;stroke:#2ca02c;" x="130.653704" xlink:href="#m8c2f86ef83" y="133.329995"/>
     <use style="fill:#2ca02c;stroke:#2ca02c;" x="166.59118" xlink:href="#m8c2f86ef83" y="139.614391"/>
     <use style="fill:#2ca02c;stroke:#2ca02c;" x="192.089226" xlink:href="#m8c2f86ef83" y="149.515074"/>
     <use style="fill:#2ca02c;stroke:#2ca02c;" x="211.867046" xlink:href="#m8c2f86ef83" y="154.201805"/>
     <use style="fill:#2ca02c;stroke:#2ca02c;" x="228.026702" xlink:href="#m8c2f86ef83" y="159.743198"/>
     <use style="fill:#2ca02c;stroke:#2ca02c;" x="241.689497" xlink:href="#m8c2f86ef83" y="164.877739"/>
     <use style="fill:#2ca02c;stroke:#2ca02c;" x="253.524748" xlink:href="#m8c2f86ef83" y="168.182657"/>
     <use style="fill:#2ca02c;stroke:#2ca02c;" x="263.964179" xlink:href="#m8c2f86ef83" y="174.071637"/>
     <use style="fill:#2ca02c;stroke:#2ca02c;" x="273.302568" xlink:href="#m8c2f86ef83" y="175.463506"/>
     <use style="fill:#2ca02c;stroke:#2ca02c;" x="281.750169" xlink:href="#m8c2f86ef83" y="181.699708"/>
     <use style="fill:#2ca02c;stroke:#2ca02c;" x="289.462224" xlink:href="#m8c2f86ef83" y="181.271361"/>
     <use style="fill:#2ca02c;stroke:#2ca02c;" x="296.556627" xlink:href="#m8c2f86ef83" y="187.348721"/>
     <use style="fill:#2ca02c;stroke:#2ca02c;" x="303.125019" xlink:href="#m8c2f86ef83" y="185.174716"/>
     <use style="fill:#2ca02c;stroke:#2ca02c;" x="309.240045" xlink:href="#m8c2f86ef83" y="190.419921"/>
     <use style="fill:#2ca02c;stroke:#2ca02c;" x="314.96027" xlink:href="#m8c2f86ef83" y="186.691064"/>
     <use style="fill:#2ca02c;stroke:#2ca02c;" x="320.333595" xlink:href="#m8c2f86ef83" y="190.701763"/>
     <use style="fill:#2ca02c;stroke:#2ca02c;" x="325.399701" xlink:href="#m8c2f86ef83" y="185.649884"/>
     <use style="fill:#2ca02c;stroke:#2ca02c;" x="330.191826" xlink:href="#m8c2f86ef83" y="188.036047"/>
     <use style="fill:#2ca02c;stroke:#2ca02c;" x="334.73809" xlink:href="#m8c2f86ef83" y="182.116222"/>
     <use style="fill:#2ca02c;stroke:#2ca02c;" x="339.062495" xlink:href="#m8c2f86ef83" y="182.686164"/>
     <use style="fill:#2ca02c;stroke:#2ca02c;" x="343.185691" xlink:href="#m8c2f86ef83" y="176.38037"/>
     <use style="fill:#2ca02c;stroke:#2ca02c;" x="347.125572" xlink:href="#m8c2f86ef83" y="174.867546"/>
     <use style="fill:#2ca02c;stroke:#2ca02c;" x="350.897746" xlink:href="#m8c2f86ef83" y="168.942949"/>
     <use style="fill:#2ca02c;stroke:#2ca02c;" x="354.515911" xlink:href="#m8c2f86ef83" y="165.785972"/>
     <use style="fill:#2ca02c;stroke:#2ca02c;" x="357.992149" xlink:href="#m8c2f86ef83" y="160.402087"/>
     <use style="fill:#2ca02c;stroke:#2ca02c;" x="361.337178" xlink:href="#m8c2f86ef83" y="154.624354"/>
     <use style="fill:#2ca02c;stroke:#2ca02c;" x="364.560541" xlink:href="#m8c2f86ef83" y="149.87791"/>
     <use style="fill:#2ca02c;stroke:#2ca02c;" x="367.67078" xlink:href="#m8c2f86ef83" y="139.924629"/>
     <use style="fill:#2ca02c;stroke:#2ca02c;" x="370.675567" xlink:href="#m8c2f86ef83" y="133.384548"/>
     <use style="fill:#2ca02c;stroke:#2ca02c;" x="373.581818" xlink:href="#m8c2f86ef83" y="110.521828"/>
    </g>
   </g>
   <g id="line2d_25">
    <path clip-path="url(#p33dab87276)" d="M 69.218182 110.288734 
L 80.941452 114.073533 
L 91.293689 117.415702 
L 100.562262 120.408014 
L 108.952698 123.116825 
L 116.617089 125.591236 
L 123.67114 127.868601 
L 130.20493 129.978003 
L 136.289956 131.942523 
L 141.983924 133.780792 
L 147.334074 135.508062 
L 152.379575 137.136977 
L 157.15326 138.678137 
L 161.682924 140.140517 
L 165.992308 141.53178 
L 170.101846 142.858524 
L 174.029255 144.126469 
L 177.789995 145.340605 
L 181.397639 146.505315 
L 184.864165 147.624466 
L 188.200199 148.701488 
L 191.415209 149.739438 
L 194.517671 150.741052 
L 197.515199 151.708789 
L 200.414659 152.644865 
L 203.222265 153.551287 
L 205.943659 154.429876 
L 208.583978 155.282289 
L 211.147913 156.110043 
L 213.63976 156.914524 
L 216.063462 157.697004 
L 218.422647 158.458655 
L 220.720661 159.200558 
L 222.960597 159.92371 
L 225.145316 160.629036 
L 227.277478 161.317393 
L 229.35955 161.98958 
L 231.393833 162.646338 
L 233.382471 163.28836 
L 235.327468 163.916293 
L 237.230698 164.530741 
L 239.093917 165.132272 
L 240.918773 165.721418 
L 242.706813 166.298678 
L 244.459495 166.864522 
L 246.178189 167.419394 
L 247.864188 167.963711 
L 249.518714 168.497866 
L 251.142919 169.022233 
L 252.737895 169.537163 
L 254.304676 170.04299 
L 255.844241 170.540031 
L 257.357519 171.028585 
L 258.845394 171.508938 
L 260.308703 171.98136 
L 261.748245 172.44611 
L 263.16478 172.903431 
L 264.559032 173.353558 
L 265.93169 173.796714 
L 267.283413 174.233111 
L 268.614831 174.662953 
L 269.926544 175.086433 
L 271.219128 175.503737 
L 272.493131 175.915043 
L 273.749082 176.32052 
L 274.987483 176.720332 
L 276.20882 177.114634 
L 277.413555 177.503577 
L 278.602134 177.887304 
L 279.774985 178.265953 
L 280.932518 178.639657 
L 282.075129 179.008543 
L 283.203197 179.372734 
L 284.317088 179.732348 
L 285.417154 180.087499 
L 286.503733 180.438296 
L 287.577153 180.784844 
L 288.637728 181.127246 
L 289.685762 181.465598 
L 290.721549 181.799997 
L 291.74537 182.130532 
L 292.757501 182.457294 
L 293.758203 182.780366 
L 294.747734 183.099831 
L 295.726338 183.415768 
L 296.694256 183.728256 
L 297.651718 184.037367 
L 298.598946 184.343176 
L 299.536159 184.64575 
L 300.463565 184.945158 
L 301.381368 185.241467 
L 302.289764 185.534738 
L 303.188944 185.825034 
L 304.079094 186.112414 
L 304.960393 186.396937 
L 305.833014 186.678658 
L 306.697128 186.957633 
L 307.552899 187.233915 
L 308.400486 187.507554 
L 309.240045 187.778601 
" style="fill:none;stroke:#2ca02c;stroke-dasharray:1.5,2.475;stroke-dashoffset:0;stroke-width:1.5;"/>
   </g>
   <g id="patch_3">
    <path d="M 54 252 
L 54 34.56 
" style="fill:none;stroke:#000000;stroke-linecap:square;stroke-linejoin:miter;stroke-width:0.4;"/>
   </g>
   <g id="patch_4">
    <path d="M 388.8 252 
L 388.8 34.56 
" style="fill:none;stroke:#000000;stroke-linecap:square;stroke-linejoin:miter;stroke-width:0.4;"/>
   </g>
   <g id="patch_5">
    <path d="M 54 252 
L 388.8 252 
" style="fill:none;stroke:#000000;stroke-linecap:square;stroke-linejoin:miter;stroke-width:0.4;"/>
   </g>
   <g id="patch_6">
    <path d="M 54 34.56 
L 388.8 34.56 
" style="fill:none;stroke:#000000;stroke-linecap:square;stroke-linejoin:miter;stroke-width:0.4;"/>
   </g>
   <g id="legend_1">
    <g id="patch_7">
     <path d="M 203.81875 101.2725 
L 381.8 101.2725 
Q 383.8 101.2725 383.8 99.2725 
L 383.8 41.56 
Q 383.8 39.56 381.8 39.56 
L 203.81875 39.56 
Q 201.81875 39.56 201.81875 41.56 
L 201.81875 99.2725 
Q 201.81875 101.2725 203.81875 101.2725 
z
" style="fill:#ffffff;opacity:0.8;stroke:#cccccc;stroke-linejoin:miter;"/>
    </g>
    <g id="line2d_26"/>
    <g id="line2d_27">
     <g>
      <use style="fill:#1f77b4;stroke:#1f77b4;" x="215.81875" xlink:href="#m99a059c393" y="47.658437"/>
     </g>
    </g>
    <g id="text_8">
     <!-- Detuning = 1.56MHz -->
     <defs>
      <path d="M 19.671875 64.796875 
L 19.671875 8.109375 
L 31.59375 8.109375 
Q 46.6875 8.109375 53.6875 14.9375 
Q 60.6875 21.78125 60.6875 36.53125 
Q 60.6875 51.171875 53.6875 57.984375 
Q 46.6875 64.796875 31.59375 64.796875 
z
M 9.8125 72.90625 
L 30.078125 72.90625 
Q 51.265625 72.90625 61.171875 64.09375 
Q 71.09375 55.28125 71.09375 36.53125 
Q 71.09375 17.671875 61.125 8.828125 
Q 51.171875 0 30.078125 0 
L 9.8125 0 
z
" id="DejaVuSans-68"/>
      <path d="M 8.5 21.578125 
L 8.5 54.6875 
L 17.484375 54.6875 
L 17.484375 21.921875 
Q 17.484375 14.15625 20.5 10.265625 
Q 23.53125 6.390625 29.59375 6.390625 
Q 36.859375 6.390625 41.078125 11.03125 
Q 45.3125 15.671875 45.3125 23.6875 
L 45.3125 54.6875 
L 54.296875 54.6875 
L 54.296875 0 
L 45.3125 0 
L 45.3125 8.40625 
Q 42.046875 3.421875 37.71875 1 
Q 33.40625 -1.421875 27.6875 -1.421875 
Q 18.265625 -1.421875 13.375 4.4375 
Q 8.5 10.296875 8.5 21.578125 
z
M 31.109375 56 
z
" id="DejaVuSans-117"/>
      <path d="M 54.890625 33.015625 
L 54.890625 0 
L 45.90625 0 
L 45.90625 32.71875 
Q 45.90625 40.484375 42.875 44.328125 
Q 39.84375 48.1875 33.796875 48.1875 
Q 26.515625 48.1875 22.3125 43.546875 
Q 18.109375 38.921875 18.109375 30.90625 
L 18.109375 0 
L 9.078125 0 
L 9.078125 54.6875 
L 18.109375 54.6875 
L 18.109375 46.1875 
Q 21.34375 51.125 25.703125 53.5625 
Q 30.078125 56 35.796875 56 
Q 45.21875 56 50.046875 50.171875 
Q 54.890625 44.34375 54.890625 33.015625 
z
" id="DejaVuSans-110"/>
      <path d="M 45.40625 27.984375 
Q 45.40625 37.75 41.375 43.109375 
Q 37.359375 48.484375 30.078125 48.484375 
Q 22.859375 48.484375 18.828125 43.109375 
Q 14.796875 37.75 14.796875 27.984375 
Q 14.796875 18.265625 18.828125 12.890625 
Q 22.859375 7.515625 30.078125 7.515625 
Q 37.359375 7.515625 41.375 12.890625 
Q 45.40625 18.265625 45.40625 27.984375 
z
M 54.390625 6.78125 
Q 54.390625 -7.171875 48.1875 -13.984375 
Q 42 -20.796875 29.203125 -20.796875 
Q 24.46875 -20.796875 20.265625 -20.09375 
Q 16.0625 -19.390625 12.109375 -17.921875 
L 12.109375 -9.1875 
Q 16.0625 -11.328125 19.921875 -12.34375 
Q 23.78125 -13.375 27.78125 -13.375 
Q 36.625 -13.375 41.015625 -8.765625 
Q 45.40625 -4.15625 45.40625 5.171875 
L 45.40625 9.625 
Q 42.625 4.78125 38.28125 2.390625 
Q 33.9375 0 27.875 0 
Q 17.828125 0 11.671875 7.65625 
Q 5.515625 15.328125 5.515625 27.984375 
Q 5.515625 40.671875 11.671875 48.328125 
Q 17.828125 56 27.875 56 
Q 33.9375 56 38.28125 53.609375 
Q 42.625 51.21875 45.40625 46.390625 
L 45.40625 54.6875 
L 54.390625 54.6875 
z
" id="DejaVuSans-103"/>
      <path d="M 10.59375 45.40625 
L 73.1875 45.40625 
L 73.1875 37.203125 
L 10.59375 37.203125 
z
M 10.59375 25.484375 
L 73.1875 25.484375 
L 73.1875 17.1875 
L 10.59375 17.1875 
z
" id="DejaVuSans-61"/>
      <path d="M 10.6875 12.40625 
L 21 12.40625 
L 21 0 
L 10.6875 0 
z
" id="DejaVuSans-46"/>
      <path d="M 10.796875 72.90625 
L 49.515625 72.90625 
L 49.515625 64.59375 
L 19.828125 64.59375 
L 19.828125 46.734375 
Q 21.96875 47.46875 24.109375 47.828125 
Q 26.265625 48.1875 28.421875 48.1875 
Q 40.625 48.1875 47.75 41.5 
Q 54.890625 34.8125 54.890625 23.390625 
Q 54.890625 11.625 47.5625 5.09375 
Q 40.234375 -1.421875 26.90625 -1.421875 
Q 22.3125 -1.421875 17.546875 -0.640625 
Q 12.796875 0.140625 7.71875 1.703125 
L 7.71875 11.625 
Q 12.109375 9.234375 16.796875 8.0625 
Q 21.484375 6.890625 26.703125 6.890625 
Q 35.15625 6.890625 40.078125 11.328125 
Q 45.015625 15.765625 45.015625 23.390625 
Q 45.015625 31 40.078125 35.4375 
Q 35.15625 39.890625 26.703125 39.890625 
Q 22.75 39.890625 18.8125 39.015625 
Q 14.890625 38.140625 10.796875 36.28125 
z
" id="DejaVuSans-53"/>
      <path d="M 9.8125 72.90625 
L 24.515625 72.90625 
L 43.109375 23.296875 
L 61.8125 72.90625 
L 76.515625 72.90625 
L 76.515625 0 
L 66.890625 0 
L 66.890625 64.015625 
L 48.09375 14.015625 
L 38.1875 14.015625 
L 19.390625 64.015625 
L 19.390625 0 
L 9.8125 0 
z
" id="DejaVuSans-77"/>
      <path d="M 9.8125 72.90625 
L 19.671875 72.90625 
L 19.671875 43.015625 
L 55.515625 43.015625 
L 55.515625 72.90625 
L 65.375 72.90625 
L 65.375 0 
L 55.515625 0 
L 55.515625 34.71875 
L 19.671875 34.71875 
L 19.671875 0 
L 9.8125 0 
z
" id="DejaVuSans-72"/>
      <path d="M 5.515625 54.6875 
L 48.1875 54.6875 
L 48.1875 46.484375 
L 14.40625 7.171875 
L 48.1875 7.171875 
L 48.1875 0 
L 4.296875 0 
L 4.296875 8.203125 
L 38.09375 47.515625 
L 5.515625 47.515625 
z
" id="DejaVuSans-122"/>
     </defs>
     <g transform="translate(233.81875 51.158437)scale(0.1 -0.1)">
      <use xlink:href="#DejaVuSans-68"/>
      <use x="77.001953" xlink:href="#DejaVuSans-101"/>
      <use x="138.525391" xlink:href="#DejaVuSans-116"/>
      <use x="177.734375" xlink:href="#DejaVuSans-117"/>
      <use x="241.113281" xlink:href="#DejaVuSans-110"/>
      <use x="304.492188" xlink:href="#DejaVuSans-105"/>
      <use x="332.275391" xlink:href="#DejaVuSans-110"/>
      <use x="395.654297" xlink:href="#DejaVuSans-103"/>
      <use x="459.130859" xlink:href="#DejaVuSans-32"/>
      <use x="490.917969" xlink:href="#DejaVuSans-61"/>
      <use x="574.707031" xlink:href="#DejaVuSans-32"/>
      <use x="606.494141" xlink:href="#DejaVuSans-49"/>
      <use x="670.117188" xlink:href="#DejaVuSans-46"/>
      <use x="701.904297" xlink:href="#DejaVuSans-53"/>
      <use x="765.527344" xlink:href="#DejaVuSans-54"/>
      <use x="829.150391" xlink:href="#DejaVuSans-77"/>
      <use x="915.429688" xlink:href="#DejaVuSans-72"/>
      <use x="990.625" xlink:href="#DejaVuSans-122"/>
     </g>
    </g>
    <g id="line2d_28"/>
    <g id="line2d_29">
     <g>
      <use style="fill:#ff7f0e;stroke:#ff7f0e;" x="215.81875" xlink:href="#m678f7e2503" y="62.336562"/>
     </g>
    </g>
    <g id="text_9">
     <!-- Critical Detuning = 1.59MHz -->
     <defs>
      <path d="M 64.40625 67.28125 
L 64.40625 56.890625 
Q 59.421875 61.53125 53.78125 63.8125 
Q 48.140625 66.109375 41.796875 66.109375 
Q 29.296875 66.109375 22.65625 58.46875 
Q 16.015625 50.828125 16.015625 36.375 
Q 16.015625 21.96875 22.65625 14.328125 
Q 29.296875 6.6875 41.796875 6.6875 
Q 48.140625 6.6875 53.78125 8.984375 
Q 59.421875 11.28125 64.40625 15.921875 
L 64.40625 5.609375 
Q 59.234375 2.09375 53.4375 0.328125 
Q 47.65625 -1.421875 41.21875 -1.421875 
Q 24.65625 -1.421875 15.125 8.703125 
Q 5.609375 18.84375 5.609375 36.375 
Q 5.609375 53.953125 15.125 64.078125 
Q 24.65625 74.21875 41.21875 74.21875 
Q 47.75 74.21875 53.53125 72.484375 
Q 59.328125 70.75 64.40625 67.28125 
z
" id="DejaVuSans-67"/>
      <path d="M 41.109375 46.296875 
Q 39.59375 47.171875 37.8125 47.578125 
Q 36.03125 48 33.890625 48 
Q 26.265625 48 22.1875 43.046875 
Q 18.109375 38.09375 18.109375 28.8125 
L 18.109375 0 
L 9.078125 0 
L 9.078125 54.6875 
L 18.109375 54.6875 
L 18.109375 46.1875 
Q 20.953125 51.171875 25.484375 53.578125 
Q 30.03125 56 36.53125 56 
Q 37.453125 56 38.578125 55.875 
Q 39.703125 55.765625 41.0625 55.515625 
z
" id="DejaVuSans-114"/>
      <path d="M 48.78125 52.59375 
L 48.78125 44.1875 
Q 44.96875 46.296875 41.140625 47.34375 
Q 37.3125 48.390625 33.40625 48.390625 
Q 24.65625 48.390625 19.8125 42.84375 
Q 14.984375 37.3125 14.984375 27.296875 
Q 14.984375 17.28125 19.8125 11.734375 
Q 24.65625 6.203125 33.40625 6.203125 
Q 37.3125 6.203125 41.140625 7.25 
Q 44.96875 8.296875 48.78125 10.40625 
L 48.78125 2.09375 
Q 45.015625 0.34375 40.984375 -0.53125 
Q 36.96875 -1.421875 32.421875 -1.421875 
Q 20.0625 -1.421875 12.78125 6.34375 
Q 5.515625 14.109375 5.515625 27.296875 
Q 5.515625 40.671875 12.859375 48.328125 
Q 20.21875 56 33.015625 56 
Q 37.15625 56 41.109375 55.140625 
Q 45.0625 54.296875 48.78125 52.59375 
z
" id="DejaVuSans-99"/>
      <path d="M 34.28125 27.484375 
Q 23.390625 27.484375 19.1875 25 
Q 14.984375 22.515625 14.984375 16.5 
Q 14.984375 11.71875 18.140625 8.90625 
Q 21.296875 6.109375 26.703125 6.109375 
Q 34.1875 6.109375 38.703125 11.40625 
Q 43.21875 16.703125 43.21875 25.484375 
L 43.21875 27.484375 
z
M 52.203125 31.203125 
L 52.203125 0 
L 43.21875 0 
L 43.21875 8.296875 
Q 40.140625 3.328125 35.546875 0.953125 
Q 30.953125 -1.421875 24.3125 -1.421875 
Q 15.921875 -1.421875 10.953125 3.296875 
Q 6 8.015625 6 15.921875 
Q 6 25.140625 12.171875 29.828125 
Q 18.359375 34.515625 30.609375 34.515625 
L 43.21875 34.515625 
L 43.21875 35.40625 
Q 43.21875 41.609375 39.140625 45 
Q 35.0625 48.390625 27.6875 48.390625 
Q 23 48.390625 18.546875 47.265625 
Q 14.109375 46.140625 10.015625 43.890625 
L 10.015625 52.203125 
Q 14.9375 54.109375 19.578125 55.046875 
Q 24.21875 56 28.609375 56 
Q 40.484375 56 46.34375 49.84375 
Q 52.203125 43.703125 52.203125 31.203125 
z
" id="DejaVuSans-97"/>
      <path d="M 9.421875 75.984375 
L 18.40625 75.984375 
L 18.40625 0 
L 9.421875 0 
z
" id="DejaVuSans-108"/>
      <path d="M 10.984375 1.515625 
L 10.984375 10.5 
Q 14.703125 8.734375 18.5 7.8125 
Q 22.3125 6.890625 25.984375 6.890625 
Q 35.75 6.890625 40.890625 13.453125 
Q 46.046875 20.015625 46.78125 33.40625 
Q 43.953125 29.203125 39.59375 26.953125 
Q 35.25 24.703125 29.984375 24.703125 
Q 19.046875 24.703125 12.671875 31.3125 
Q 6.296875 37.9375 6.296875 49.421875 
Q 6.296875 60.640625 12.9375 67.421875 
Q 19.578125 74.21875 30.609375 74.21875 
Q 43.265625 74.21875 49.921875 64.515625 
Q 56.59375 54.828125 56.59375 36.375 
Q 56.59375 19.140625 48.40625 8.859375 
Q 40.234375 -1.421875 26.421875 -1.421875 
Q 22.703125 -1.421875 18.890625 -0.6875 
Q 15.09375 0.046875 10.984375 1.515625 
z
M 30.609375 32.421875 
Q 37.25 32.421875 41.125 36.953125 
Q 45.015625 41.5 45.015625 49.421875 
Q 45.015625 57.28125 41.125 61.84375 
Q 37.25 66.40625 30.609375 66.40625 
Q 23.96875 66.40625 20.09375 61.84375 
Q 16.21875 57.28125 16.21875 49.421875 
Q 16.21875 41.5 20.09375 36.953125 
Q 23.96875 32.421875 30.609375 32.421875 
z
" id="DejaVuSans-57"/>
     </defs>
     <g transform="translate(233.81875 65.836562)scale(0.1 -0.1)">
      <use xlink:href="#DejaVuSans-67"/>
      <use x="69.824219" xlink:href="#DejaVuSans-114"/>
      <use x="110.9375" xlink:href="#DejaVuSans-105"/>
      <use x="138.720703" xlink:href="#DejaVuSans-116"/>
      <use x="177.929688" xlink:href="#DejaVuSans-105"/>
      <use x="205.712891" xlink:href="#DejaVuSans-99"/>
      <use x="260.693359" xlink:href="#DejaVuSans-97"/>
      <use x="321.972656" xlink:href="#DejaVuSans-108"/>
      <use x="349.755859" xlink:href="#DejaVuSans-32"/>
      <use x="381.542969" xlink:href="#DejaVuSans-68"/>
      <use x="458.544922" xlink:href="#DejaVuSans-101"/>
      <use x="520.068359" xlink:href="#DejaVuSans-116"/>
      <use x="559.277344" xlink:href="#DejaVuSans-117"/>
      <use x="622.65625" xlink:href="#DejaVuSans-110"/>
      <use x="686.035156" xlink:href="#DejaVuSans-105"/>
      <use x="713.818359" xlink:href="#DejaVuSans-110"/>
      <use x="777.197266" xlink:href="#DejaVuSans-103"/>
      <use x="840.673828" xlink:href="#DejaVuSans-32"/>
      <use x="872.460938" xlink:href="#DejaVuSans-61"/>
      <use x="956.25" xlink:href="#DejaVuSans-32"/>
      <use x="988.037109" xlink:href="#DejaVuSans-49"/>
      <use x="1051.660156" xlink:href="#DejaVuSans-46"/>
      <use x="1083.447266" xlink:href="#DejaVuSans-53"/>
      <use x="1147.070312" xlink:href="#DejaVuSans-57"/>
      <use x="1210.693359" xlink:href="#DejaVuSans-77"/>
      <use x="1296.972656" xlink:href="#DejaVuSans-72"/>
      <use x="1372.167969" xlink:href="#DejaVuSans-122"/>
     </g>
    </g>
    <g id="line2d_30"/>
    <g id="line2d_31">
     <g>
      <use style="fill:#2ca02c;stroke:#2ca02c;" x="215.81875" xlink:href="#m8c2f86ef83" y="77.014687"/>
     </g>
    </g>
    <g id="text_10">
     <!-- Detuning = 1.64MHz -->
     <defs>
      <path d="M 37.796875 64.3125 
L 12.890625 25.390625 
L 37.796875 25.390625 
z
M 35.203125 72.90625 
L 47.609375 72.90625 
L 47.609375 25.390625 
L 58.015625 25.390625 
L 58.015625 17.1875 
L 47.609375 17.1875 
L 47.609375 0 
L 37.796875 0 
L 37.796875 17.1875 
L 4.890625 17.1875 
L 4.890625 26.703125 
z
" id="DejaVuSans-52"/>
     </defs>
     <g transform="translate(233.81875 80.514687)scale(0.1 -0.1)">
      <use xlink:href="#DejaVuSans-68"/>
      <use x="77.001953" xlink:href="#DejaVuSans-101"/>
      <use x="138.525391" xlink:href="#DejaVuSans-116"/>
      <use x="177.734375" xlink:href="#DejaVuSans-117"/>
      <use x="241.113281" xlink:href="#DejaVuSans-110"/>
      <use x="304.492188" xlink:href="#DejaVuSans-105"/>
      <use x="332.275391" xlink:href="#DejaVuSans-110"/>
      <use x="395.654297" xlink:href="#DejaVuSans-103"/>
      <use x="459.130859" xlink:href="#DejaVuSans-32"/>
      <use x="490.917969" xlink:href="#DejaVuSans-61"/>
      <use x="574.707031" xlink:href="#DejaVuSans-32"/>
      <use x="606.494141" xlink:href="#DejaVuSans-49"/>
      <use x="670.117188" xlink:href="#DejaVuSans-46"/>
      <use x="701.904297" xlink:href="#DejaVuSans-54"/>
      <use x="765.527344" xlink:href="#DejaVuSans-52"/>
      <use x="829.150391" xlink:href="#DejaVuSans-77"/>
      <use x="915.429688" xlink:href="#DejaVuSans-72"/>
      <use x="990.625" xlink:href="#DejaVuSans-122"/>
     </g>
    </g>
    <g id="patch_8">
     <path d="M 205.81875 95.192813 
L 225.81875 95.192813 
L 225.81875 88.192813 
L 205.81875 88.192813 
z
" style="fill:#808080;opacity:0.2;stroke:#808080;stroke-linejoin:miter;"/>
    </g>
    <g id="text_11">
     <!-- CFT prediction, slope = -0.25 -->
     <defs>
      <path d="M 9.8125 72.90625 
L 51.703125 72.90625 
L 51.703125 64.59375 
L 19.671875 64.59375 
L 19.671875 43.109375 
L 48.578125 43.109375 
L 48.578125 34.8125 
L 19.671875 34.8125 
L 19.671875 0 
L 9.8125 0 
z
" id="DejaVuSans-70"/>
      <path d="M -0.296875 72.90625 
L 61.375 72.90625 
L 61.375 64.59375 
L 35.5 64.59375 
L 35.5 0 
L 25.59375 0 
L 25.59375 64.59375 
L -0.296875 64.59375 
z
" id="DejaVuSans-84"/>
      <path d="M 18.109375 8.203125 
L 18.109375 -20.796875 
L 9.078125 -20.796875 
L 9.078125 54.6875 
L 18.109375 54.6875 
L 18.109375 46.390625 
Q 20.953125 51.265625 25.265625 53.625 
Q 29.59375 56 35.59375 56 
Q 45.5625 56 51.78125 48.09375 
Q 58.015625 40.1875 58.015625 27.296875 
Q 58.015625 14.40625 51.78125 6.484375 
Q 45.5625 -1.421875 35.59375 -1.421875 
Q 29.59375 -1.421875 25.265625 0.953125 
Q 20.953125 3.328125 18.109375 8.203125 
z
M 48.6875 27.296875 
Q 48.6875 37.203125 44.609375 42.84375 
Q 40.53125 48.484375 33.40625 48.484375 
Q 26.265625 48.484375 22.1875 42.84375 
Q 18.109375 37.203125 18.109375 27.296875 
Q 18.109375 17.390625 22.1875 11.75 
Q 26.265625 6.109375 33.40625 6.109375 
Q 40.53125 6.109375 44.609375 11.75 
Q 48.6875 17.390625 48.6875 27.296875 
z
" id="DejaVuSans-112"/>
      <path d="M 45.40625 46.390625 
L 45.40625 75.984375 
L 54.390625 75.984375 
L 54.390625 0 
L 45.40625 0 
L 45.40625 8.203125 
Q 42.578125 3.328125 38.25 0.953125 
Q 33.9375 -1.421875 27.875 -1.421875 
Q 17.96875 -1.421875 11.734375 6.484375 
Q 5.515625 14.40625 5.515625 27.296875 
Q 5.515625 40.1875 11.734375 48.09375 
Q 17.96875 56 27.875 56 
Q 33.9375 56 38.25 53.625 
Q 42.578125 51.265625 45.40625 46.390625 
z
M 14.796875 27.296875 
Q 14.796875 17.390625 18.875 11.75 
Q 22.953125 6.109375 30.078125 6.109375 
Q 37.203125 6.109375 41.296875 11.75 
Q 45.40625 17.390625 45.40625 27.296875 
Q 45.40625 37.203125 41.296875 42.84375 
Q 37.203125 48.484375 30.078125 48.484375 
Q 22.953125 48.484375 18.875 42.84375 
Q 14.796875 37.203125 14.796875 27.296875 
z
" id="DejaVuSans-100"/>
      <path d="M 30.609375 48.390625 
Q 23.390625 48.390625 19.1875 42.75 
Q 14.984375 37.109375 14.984375 27.296875 
Q 14.984375 17.484375 19.15625 11.84375 
Q 23.34375 6.203125 30.609375 6.203125 
Q 37.796875 6.203125 41.984375 11.859375 
Q 46.1875 17.53125 46.1875 27.296875 
Q 46.1875 37.015625 41.984375 42.703125 
Q 37.796875 48.390625 30.609375 48.390625 
z
M 30.609375 56 
Q 42.328125 56 49.015625 48.375 
Q 55.71875 40.765625 55.71875 27.296875 
Q 55.71875 13.875 49.015625 6.21875 
Q 42.328125 -1.421875 30.609375 -1.421875 
Q 18.84375 -1.421875 12.171875 6.21875 
Q 5.515625 13.875 5.515625 27.296875 
Q 5.515625 40.765625 12.171875 48.375 
Q 18.84375 56 30.609375 56 
z
" id="DejaVuSans-111"/>
      <path d="M 11.71875 12.40625 
L 22.015625 12.40625 
L 22.015625 4 
L 14.015625 -11.625 
L 7.71875 -11.625 
L 11.71875 4 
z
" id="DejaVuSans-44"/>
      <path d="M 44.28125 53.078125 
L 44.28125 44.578125 
Q 40.484375 46.53125 36.375 47.5 
Q 32.28125 48.484375 27.875 48.484375 
Q 21.1875 48.484375 17.84375 46.4375 
Q 14.5 44.390625 14.5 40.28125 
Q 14.5 37.15625 16.890625 35.375 
Q 19.28125 33.59375 26.515625 31.984375 
L 29.59375 31.296875 
Q 39.15625 29.25 43.1875 25.515625 
Q 47.21875 21.78125 47.21875 15.09375 
Q 47.21875 7.46875 41.1875 3.015625 
Q 35.15625 -1.421875 24.609375 -1.421875 
Q 20.21875 -1.421875 15.453125 -0.5625 
Q 10.6875 0.296875 5.421875 2 
L 5.421875 11.28125 
Q 10.40625 8.6875 15.234375 7.390625 
Q 20.0625 6.109375 24.8125 6.109375 
Q 31.15625 6.109375 34.5625 8.28125 
Q 37.984375 10.453125 37.984375 14.40625 
Q 37.984375 18.0625 35.515625 20.015625 
Q 33.0625 21.96875 24.703125 23.78125 
L 21.578125 24.515625 
Q 13.234375 26.265625 9.515625 29.90625 
Q 5.8125 33.546875 5.8125 39.890625 
Q 5.8125 47.609375 11.28125 51.796875 
Q 16.75 56 26.8125 56 
Q 31.78125 56 36.171875 55.265625 
Q 40.578125 54.546875 44.28125 53.078125 
z
" id="DejaVuSans-115"/>
      <path d="M 4.890625 31.390625 
L 31.203125 31.390625 
L 31.203125 23.390625 
L 4.890625 23.390625 
z
" id="DejaVuSans-45"/>
     </defs>
     <g transform="translate(233.81875 95.192813)scale(0.1 -0.1)">
      <use xlink:href="#DejaVuSans-67"/>
      <use x="69.824219" xlink:href="#DejaVuSans-70"/>
      <use x="127.328125" xlink:href="#DejaVuSans-84"/>
      <use x="188.412109" xlink:href="#DejaVuSans-32"/>
      <use x="220.199219" xlink:href="#DejaVuSans-112"/>
      <use x="283.675781" xlink:href="#DejaVuSans-114"/>
      <use x="324.757812" xlink:href="#DejaVuSans-101"/>
      <use x="386.28125" xlink:href="#DejaVuSans-100"/>
      <use x="449.757812" xlink:href="#DejaVuSans-105"/>
      <use x="477.541016" xlink:href="#DejaVuSans-99"/>
      <use x="532.521484" xlink:href="#DejaVuSans-116"/>
      <use x="571.730469" xlink:href="#DejaVuSans-105"/>
      <use x="599.513672" xlink:href="#DejaVuSans-111"/>
      <use x="660.695312" xlink:href="#DejaVuSans-110"/>
      <use x="724.074219" xlink:href="#DejaVuSans-44"/>
      <use x="755.861328" xlink:href="#DejaVuSans-32"/>
      <use x="787.648438" xlink:href="#DejaVuSans-115"/>
      <use x="839.748047" xlink:href="#DejaVuSans-108"/>
      <use x="867.53125" xlink:href="#DejaVuSans-111"/>
      <use x="928.712891" xlink:href="#DejaVuSans-112"/>
      <use x="992.189453" xlink:href="#DejaVuSans-101"/>
      <use x="1053.712891" xlink:href="#DejaVuSans-32"/>
      <use x="1085.5" xlink:href="#DejaVuSans-61"/>
      <use x="1169.289062" xlink:href="#DejaVuSans-32"/>
      <use x="1201.076172" xlink:href="#DejaVuSans-45"/>
      <use x="1237.160156" xlink:href="#DejaVuSans-48"/>
      <use x="1300.783203" xlink:href="#DejaVuSans-46"/>
      <use x="1332.570312" xlink:href="#DejaVuSans-50"/>
      <use x="1396.193359" xlink:href="#DejaVuSans-53"/>
     </g>
    </g>
   </g>
  </g>
 </g>
 <defs>
  <clipPath id="p33dab87276">
   <rect height="217.44" width="334.8" x="54" y="34.56"/>
  </clipPath>
 </defs>
</svg>
