<?xml version="1.0" encoding="utf-8" standalone="no"?>
<!DOCTYPE svg PUBLIC "-//W3C//DTD SVG 1.1//EN"
  "http://www.w3.org/Graphics/SVG/1.1/DTD/svg11.dtd">
<!-- Created with matplotlib (https://matplotlib.org/) -->
<svg height="432pt" version="1.1" viewBox="0 0 576 432" width="576pt" xmlns="http://www.w3.org/2000/svg" xmlns:xlink="http://www.w3.org/1999/xlink">
 <defs>
  <style type="text/css">
*{stroke-linecap:butt;stroke-linejoin:round;}
  </style>
 </defs>
 <g id="figure_1">
  <g id="patch_1">
   <path d="M 0 432 
L 576 432 
L 576 0 
L 0 0 
z
" style="fill:#ffffff;"/>
  </g>
  <g id="axes_1">
   <g id="patch_2">
    <path d="M 80.64 203.04 
L 547.2 203.04 
L 547.2 21.6 
L 80.64 21.6 
z
" style="fill:#ffffff;"/>
   </g>
   <g id="matplotlib.axis_1">
    <g id="xtick_1">
     <g id="line2d_1">
      <defs>
       <path d="M 0 0 
L 0 -3.5 
" id="m6e8d1e976b" style="stroke:#000000;stroke-width:1.5;"/>
      </defs>
      <g>
       <use style="stroke:#000000;stroke-width:1.5;" x="101.847273" xlink:href="#m6e8d1e976b" y="203.04"/>
      </g>
     </g>
     <g id="line2d_2">
      <defs>
       <path d="M 0 0 
L 0 3.5 
" id="m846fec7543" style="stroke:#000000;stroke-width:1.5;"/>
      </defs>
      <g>
       <use style="stroke:#000000;stroke-width:1.5;" x="101.847273" xlink:href="#m846fec7543" y="21.6"/>
      </g>
     </g>
    </g>
    <g id="xtick_2">
     <g id="line2d_3">
      <g>
       <use style="stroke:#000000;stroke-width:1.5;" x="169.76488" xlink:href="#m6e8d1e976b" y="203.04"/>
      </g>
     </g>
     <g id="line2d_4">
      <g>
       <use style="stroke:#000000;stroke-width:1.5;" x="169.76488" xlink:href="#m846fec7543" y="21.6"/>
      </g>
     </g>
    </g>
    <g id="xtick_3">
     <g id="line2d_5">
      <g>
       <use style="stroke:#000000;stroke-width:1.5;" x="237.682486" xlink:href="#m6e8d1e976b" y="203.04"/>
      </g>
     </g>
     <g id="line2d_6">
      <g>
       <use style="stroke:#000000;stroke-width:1.5;" x="237.682486" xlink:href="#m846fec7543" y="21.6"/>
      </g>
     </g>
    </g>
    <g id="xtick_4">
     <g id="line2d_7">
      <g>
       <use style="stroke:#000000;stroke-width:1.5;" x="305.600093" xlink:href="#m6e8d1e976b" y="203.04"/>
      </g>
     </g>
     <g id="line2d_8">
      <g>
       <use style="stroke:#000000;stroke-width:1.5;" x="305.600093" xlink:href="#m846fec7543" y="21.6"/>
      </g>
     </g>
    </g>
    <g id="xtick_5">
     <g id="line2d_9">
      <g>
       <use style="stroke:#000000;stroke-width:1.5;" x="373.5177" xlink:href="#m6e8d1e976b" y="203.04"/>
      </g>
     </g>
     <g id="line2d_10">
      <g>
       <use style="stroke:#000000;stroke-width:1.5;" x="373.5177" xlink:href="#m846fec7543" y="21.6"/>
      </g>
     </g>
    </g>
    <g id="xtick_6">
     <g id="line2d_11">
      <g>
       <use style="stroke:#000000;stroke-width:1.5;" x="441.435307" xlink:href="#m6e8d1e976b" y="203.04"/>
      </g>
     </g>
     <g id="line2d_12">
      <g>
       <use style="stroke:#000000;stroke-width:1.5;" x="441.435307" xlink:href="#m846fec7543" y="21.6"/>
      </g>
     </g>
    </g>
    <g id="xtick_7">
     <g id="line2d_13">
      <g>
       <use style="stroke:#000000;stroke-width:1.5;" x="509.352914" xlink:href="#m6e8d1e976b" y="203.04"/>
      </g>
     </g>
     <g id="line2d_14">
      <g>
       <use style="stroke:#000000;stroke-width:1.5;" x="509.352914" xlink:href="#m846fec7543" y="21.6"/>
      </g>
     </g>
    </g>
   </g>
   <g id="matplotlib.axis_2">
    <g id="ytick_1">
     <g id="line2d_15">
      <defs>
       <path d="M 0 0 
L 3.5 0 
" id="m3bdba9e759" style="stroke:#000000;stroke-width:1.5;"/>
      </defs>
      <g>
       <use style="stroke:#000000;stroke-width:1.5;" x="80.64" xlink:href="#m3bdba9e759" y="203.04"/>
      </g>
     </g>
     <g id="line2d_16">
      <defs>
       <path d="M 0 0 
L -3.5 0 
" id="m7fd1c33a66" style="stroke:#000000;stroke-width:1.5;"/>
      </defs>
      <g>
       <use style="stroke:#000000;stroke-width:1.5;" x="547.2" xlink:href="#m7fd1c33a66" y="203.04"/>
      </g>
     </g>
     <g id="text_1">
      <!-- 0 -->
      <defs>
       <path d="M 31.78125 66.40625 
Q 24.171875 66.40625 20.328125 58.90625 
Q 16.5 51.421875 16.5 36.375 
Q 16.5 21.390625 20.328125 13.890625 
Q 24.171875 6.390625 31.78125 6.390625 
Q 39.453125 6.390625 43.28125 13.890625 
Q 47.125 21.390625 47.125 36.375 
Q 47.125 51.421875 43.28125 58.90625 
Q 39.453125 66.40625 31.78125 66.40625 
z
M 31.78125 74.21875 
Q 44.046875 74.21875 50.515625 64.515625 
Q 56.984375 54.828125 56.984375 36.375 
Q 56.984375 17.96875 50.515625 8.265625 
Q 44.046875 -1.421875 31.78125 -1.421875 
Q 19.53125 -1.421875 13.0625 8.265625 
Q 6.59375 17.96875 6.59375 36.375 
Q 6.59375 54.828125 13.0625 64.515625 
Q 19.53125 74.21875 31.78125 74.21875 
z
" id="DejaVuSans-48"/>
      </defs>
      <g transform="translate(67.59625 208.738828)scale(0.15 -0.15)">
       <use xlink:href="#DejaVuSans-48"/>
      </g>
     </g>
    </g>
    <g id="ytick_2">
     <g id="line2d_17">
      <g>
       <use style="stroke:#000000;stroke-width:1.5;" x="80.64" xlink:href="#m3bdba9e759" y="166.752"/>
      </g>
     </g>
     <g id="line2d_18">
      <g>
       <use style="stroke:#000000;stroke-width:1.5;" x="547.2" xlink:href="#m7fd1c33a66" y="166.752"/>
      </g>
     </g>
     <g id="text_2">
      <!-- 0.2 -->
      <defs>
       <path d="M 10.6875 12.40625 
L 21 12.40625 
L 21 0 
L 10.6875 0 
z
" id="DejaVuSans-46"/>
       <path d="M 19.1875 8.296875 
L 53.609375 8.296875 
L 53.609375 0 
L 7.328125 0 
L 7.328125 8.296875 
Q 12.9375 14.109375 22.625 23.890625 
Q 32.328125 33.6875 34.8125 36.53125 
Q 39.546875 41.84375 41.421875 45.53125 
Q 43.3125 49.21875 43.3125 52.78125 
Q 43.3125 58.59375 39.234375 62.25 
Q 35.15625 65.921875 28.609375 65.921875 
Q 23.96875 65.921875 18.8125 64.3125 
Q 13.671875 62.703125 7.8125 59.421875 
L 7.8125 69.390625 
Q 13.765625 71.78125 18.9375 73 
Q 24.125 74.21875 28.421875 74.21875 
Q 39.75 74.21875 46.484375 68.546875 
Q 53.21875 62.890625 53.21875 53.421875 
Q 53.21875 48.921875 51.53125 44.890625 
Q 49.859375 40.875 45.40625 35.40625 
Q 44.1875 33.984375 37.640625 27.21875 
Q 31.109375 20.453125 19.1875 8.296875 
z
" id="DejaVuSans-50"/>
      </defs>
      <g transform="translate(53.285313 172.450828)scale(0.15 -0.15)">
       <use xlink:href="#DejaVuSans-48"/>
       <use x="63.623047" xlink:href="#DejaVuSans-46"/>
       <use x="95.410156" xlink:href="#DejaVuSans-50"/>
      </g>
     </g>
    </g>
    <g id="ytick_3">
     <g id="line2d_19">
      <g>
       <use style="stroke:#000000;stroke-width:1.5;" x="80.64" xlink:href="#m3bdba9e759" y="130.464"/>
      </g>
     </g>
     <g id="line2d_20">
      <g>
       <use style="stroke:#000000;stroke-width:1.5;" x="547.2" xlink:href="#m7fd1c33a66" y="130.464"/>
      </g>
     </g>
     <g id="text_3">
      <!-- 0.4 -->
      <defs>
       <path d="M 37.796875 64.3125 
L 12.890625 25.390625 
L 37.796875 25.390625 
z
M 35.203125 72.90625 
L 47.609375 72.90625 
L 47.609375 25.390625 
L 58.015625 25.390625 
L 58.015625 17.1875 
L 47.609375 17.1875 
L 47.609375 0 
L 37.796875 0 
L 37.796875 17.1875 
L 4.890625 17.1875 
L 4.890625 26.703125 
z
" id="DejaVuSans-52"/>
      </defs>
      <g transform="translate(53.285313 136.162828)scale(0.15 -0.15)">
       <use xlink:href="#DejaVuSans-48"/>
       <use x="63.623047" xlink:href="#DejaVuSans-46"/>
       <use x="95.410156" xlink:href="#DejaVuSans-52"/>
      </g>
     </g>
    </g>
    <g id="ytick_4">
     <g id="line2d_21">
      <g>
       <use style="stroke:#000000;stroke-width:1.5;" x="80.64" xlink:href="#m3bdba9e759" y="94.176"/>
      </g>
     </g>
     <g id="line2d_22">
      <g>
       <use style="stroke:#000000;stroke-width:1.5;" x="547.2" xlink:href="#m7fd1c33a66" y="94.176"/>
      </g>
     </g>
     <g id="text_4">
      <!-- 0.6 -->
      <defs>
       <path d="M 33.015625 40.375 
Q 26.375 40.375 22.484375 35.828125 
Q 18.609375 31.296875 18.609375 23.390625 
Q 18.609375 15.53125 22.484375 10.953125 
Q 26.375 6.390625 33.015625 6.390625 
Q 39.65625 6.390625 43.53125 10.953125 
Q 47.40625 15.53125 47.40625 23.390625 
Q 47.40625 31.296875 43.53125 35.828125 
Q 39.65625 40.375 33.015625 40.375 
z
M 52.59375 71.296875 
L 52.59375 62.3125 
Q 48.875 64.0625 45.09375 64.984375 
Q 41.3125 65.921875 37.59375 65.921875 
Q 27.828125 65.921875 22.671875 59.328125 
Q 17.53125 52.734375 16.796875 39.40625 
Q 19.671875 43.65625 24.015625 45.921875 
Q 28.375 48.1875 33.59375 48.1875 
Q 44.578125 48.1875 50.953125 41.515625 
Q 57.328125 34.859375 57.328125 23.390625 
Q 57.328125 12.15625 50.6875 5.359375 
Q 44.046875 -1.421875 33.015625 -1.421875 
Q 20.359375 -1.421875 13.671875 8.265625 
Q 6.984375 17.96875 6.984375 36.375 
Q 6.984375 53.65625 15.1875 63.9375 
Q 23.390625 74.21875 37.203125 74.21875 
Q 40.921875 74.21875 44.703125 73.484375 
Q 48.484375 72.75 52.59375 71.296875 
z
" id="DejaVuSans-54"/>
      </defs>
      <g transform="translate(53.285313 99.874828)scale(0.15 -0.15)">
       <use xlink:href="#DejaVuSans-48"/>
       <use x="63.623047" xlink:href="#DejaVuSans-46"/>
       <use x="95.410156" xlink:href="#DejaVuSans-54"/>
      </g>
     </g>
    </g>
    <g id="ytick_5">
     <g id="line2d_23">
      <g>
       <use style="stroke:#000000;stroke-width:1.5;" x="80.64" xlink:href="#m3bdba9e759" y="57.888"/>
      </g>
     </g>
     <g id="line2d_24">
      <g>
       <use style="stroke:#000000;stroke-width:1.5;" x="547.2" xlink:href="#m7fd1c33a66" y="57.888"/>
      </g>
     </g>
     <g id="text_5">
      <!-- 0.8 -->
      <defs>
       <path d="M 31.78125 34.625 
Q 24.75 34.625 20.71875 30.859375 
Q 16.703125 27.09375 16.703125 20.515625 
Q 16.703125 13.921875 20.71875 10.15625 
Q 24.75 6.390625 31.78125 6.390625 
Q 38.8125 6.390625 42.859375 10.171875 
Q 46.921875 13.96875 46.921875 20.515625 
Q 46.921875 27.09375 42.890625 30.859375 
Q 38.875 34.625 31.78125 34.625 
z
M 21.921875 38.8125 
Q 15.578125 40.375 12.03125 44.71875 
Q 8.5 49.078125 8.5 55.328125 
Q 8.5 64.0625 14.71875 69.140625 
Q 20.953125 74.21875 31.78125 74.21875 
Q 42.671875 74.21875 48.875 69.140625 
Q 55.078125 64.0625 55.078125 55.328125 
Q 55.078125 49.078125 51.53125 44.71875 
Q 48 40.375 41.703125 38.8125 
Q 48.828125 37.15625 52.796875 32.3125 
Q 56.78125 27.484375 56.78125 20.515625 
Q 56.78125 9.90625 50.3125 4.234375 
Q 43.84375 -1.421875 31.78125 -1.421875 
Q 19.734375 -1.421875 13.25 4.234375 
Q 6.78125 9.90625 6.78125 20.515625 
Q 6.78125 27.484375 10.78125 32.3125 
Q 14.796875 37.15625 21.921875 38.8125 
z
M 18.3125 54.390625 
Q 18.3125 48.734375 21.84375 45.5625 
Q 25.390625 42.390625 31.78125 42.390625 
Q 38.140625 42.390625 41.71875 45.5625 
Q 45.3125 48.734375 45.3125 54.390625 
Q 45.3125 60.0625 41.71875 63.234375 
Q 38.140625 66.40625 31.78125 66.40625 
Q 25.390625 66.40625 21.84375 63.234375 
Q 18.3125 60.0625 18.3125 54.390625 
z
" id="DejaVuSans-56"/>
      </defs>
      <g transform="translate(53.285313 63.586828)scale(0.15 -0.15)">
       <use xlink:href="#DejaVuSans-48"/>
       <use x="63.623047" xlink:href="#DejaVuSans-46"/>
       <use x="95.410156" xlink:href="#DejaVuSans-56"/>
      </g>
     </g>
    </g>
    <g id="ytick_6">
     <g id="line2d_25">
      <g>
       <use style="stroke:#000000;stroke-width:1.5;" x="80.64" xlink:href="#m3bdba9e759" y="21.6"/>
      </g>
     </g>
     <g id="line2d_26">
      <g>
       <use style="stroke:#000000;stroke-width:1.5;" x="547.2" xlink:href="#m7fd1c33a66" y="21.6"/>
      </g>
     </g>
     <g id="text_6">
      <!-- 1 -->
      <defs>
       <path d="M 12.40625 8.296875 
L 28.515625 8.296875 
L 28.515625 63.921875 
L 10.984375 60.40625 
L 10.984375 69.390625 
L 28.421875 72.90625 
L 38.28125 72.90625 
L 38.28125 8.296875 
L 54.390625 8.296875 
L 54.390625 0 
L 12.40625 0 
z
" id="DejaVuSans-49"/>
      </defs>
      <g transform="translate(67.59625 27.298828)scale(0.15 -0.15)">
       <use xlink:href="#DejaVuSans-49"/>
      </g>
     </g>
    </g>
   </g>
   <g id="LineCollection_1">
    <path clip-path="url(#pa310b50f08)" d="M 101.847273 38.239318 
L 101.847273 30.039319 
" style="fill:none;stroke:#ff7f0e;stroke-width:1.5;"/>
    <path clip-path="url(#pa310b50f08)" d="M 105.324654 53.359076 
L 105.324654 41.892431 
" style="fill:none;stroke:#ff7f0e;stroke-width:1.5;"/>
    <path clip-path="url(#pa310b50f08)" d="M 108.802036 152.409531 
L 108.802036 136.4566 
" style="fill:none;stroke:#ff7f0e;stroke-width:1.5;"/>
    <path clip-path="url(#pa310b50f08)" d="M 112.279417 198.200269 
L 112.279417 191.520374 
" style="fill:none;stroke:#ff7f0e;stroke-width:1.5;"/>
    <path clip-path="url(#pa310b50f08)" d="M 115.756799 156.917952 
L 115.756799 141.811258 
" style="fill:none;stroke:#ff7f0e;stroke-width:1.5;"/>
    <path clip-path="url(#pa310b50f08)" d="M 119.23418 81.369602 
L 119.23418 65.744715 
" style="fill:none;stroke:#ff7f0e;stroke-width:1.5;"/>
    <path clip-path="url(#pa310b50f08)" d="M 122.711562 63.904006 
L 122.711562 50.22089 
" style="fill:none;stroke:#ff7f0e;stroke-width:1.5;"/>
    <path clip-path="url(#pa310b50f08)" d="M 126.188943 126.038134 
L 126.188943 109.364887 
" style="fill:none;stroke:#ff7f0e;stroke-width:1.5;"/>
    <path clip-path="url(#pa310b50f08)" d="M 129.666324 189.064403 
L 129.666324 178.376135 
" style="fill:none;stroke:#ff7f0e;stroke-width:1.5;"/>
    <path clip-path="url(#pa310b50f08)" d="M 133.143706 181.287703 
L 133.143706 169.086588 
" style="fill:none;stroke:#ff7f0e;stroke-width:1.5;"/>
    <path clip-path="url(#pa310b50f08)" d="M 136.621087 100.613128 
L 136.621087 84.38586 
" style="fill:none;stroke:#ff7f0e;stroke-width:1.5;"/>
    <path clip-path="url(#pa310b50f08)" d="M 140.098469 67.558571 
L 140.098469 53.62797 
" style="fill:none;stroke:#ff7f0e;stroke-width:1.5;"/>
    <path clip-path="url(#pa310b50f08)" d="M 143.57585 90.908447 
L 143.57585 74.843387 
" style="fill:none;stroke:#ff7f0e;stroke-width:1.5;"/>
    <path clip-path="url(#pa310b50f08)" d="M 147.053232 171.856452 
L 147.053232 158.236476 
" style="fill:none;stroke:#ff7f0e;stroke-width:1.5;"/>
    <path clip-path="url(#pa310b50f08)" d="M 150.530613 187.430898 
L 150.530613 176.780007 
" style="fill:none;stroke:#ff7f0e;stroke-width:1.5;"/>
    <path clip-path="url(#pa310b50f08)" d="M 154.007995 113.817606 
L 154.007995 97.435751 
" style="fill:none;stroke:#ff7f0e;stroke-width:1.5;"/>
    <path clip-path="url(#pa310b50f08)" d="M 157.485376 67.43755 
L 157.485376 53.288133 
" style="fill:none;stroke:#ff7f0e;stroke-width:1.5;"/>
    <path clip-path="url(#pa310b50f08)" d="M 160.962758 82.133827 
L 160.962758 66.773117 
" style="fill:none;stroke:#ff7f0e;stroke-width:1.5;"/>
    <path clip-path="url(#pa310b50f08)" d="M 164.440139 146.207186 
L 164.440139 130.273851 
" style="fill:none;stroke:#ff7f0e;stroke-width:1.5;"/>
    <path clip-path="url(#pa310b50f08)" d="M 167.917521 196.628092 
L 167.917521 188.941205 
" style="fill:none;stroke:#ff7f0e;stroke-width:1.5;"/>
    <path clip-path="url(#pa310b50f08)" d="M 171.394902 155.972287 
L 171.394902 141.519502 
" style="fill:none;stroke:#ff7f0e;stroke-width:1.5;"/>
    <path clip-path="url(#pa310b50f08)" d="M 275.716346 151.800981 
L 275.716346 135.94748 
" style="fill:none;stroke:#ff7f0e;stroke-width:1.5;"/>
    <path clip-path="url(#pa310b50f08)" d="M 280.932418 183.262859 
L 280.932418 171.640175 
" style="fill:none;stroke:#ff7f0e;stroke-width:1.5;"/>
    <path clip-path="url(#pa310b50f08)" d="M 286.148491 93.575796 
L 286.148491 77.419653 
" style="fill:none;stroke:#ff7f0e;stroke-width:1.5;"/>
    <path clip-path="url(#pa310b50f08)" d="M 291.364563 92.691276 
L 291.364563 77.516724 
" style="fill:none;stroke:#ff7f0e;stroke-width:1.5;"/>
    <path clip-path="url(#pa310b50f08)" d="M 296.580635 182.453999 
L 296.580635 169.382699 
" style="fill:none;stroke:#ff7f0e;stroke-width:1.5;"/>
    <path clip-path="url(#pa310b50f08)" d="M 301.796707 142.472244 
L 301.796707 126.809254 
" style="fill:none;stroke:#ff7f0e;stroke-width:1.5;"/>
    <path clip-path="url(#pa310b50f08)" d="M 307.012779 79.823189 
L 307.012779 64.53324 
" style="fill:none;stroke:#ff7f0e;stroke-width:1.5;"/>
    <path clip-path="url(#pa310b50f08)" d="M 312.228852 113.67953 
L 312.228852 96.884355 
" style="fill:none;stroke:#ff7f0e;stroke-width:1.5;"/>
    <path clip-path="url(#pa310b50f08)" d="M 317.444924 179.842352 
L 317.444924 167.755908 
" style="fill:none;stroke:#ff7f0e;stroke-width:1.5;"/>
    <path clip-path="url(#pa310b50f08)" d="M 322.660996 109.419682 
L 322.660996 92.337106 
" style="fill:none;stroke:#ff7f0e;stroke-width:1.5;"/>
    <path clip-path="url(#pa310b50f08)" d="M 327.877068 80.330132 
L 327.877068 64.929868 
" style="fill:none;stroke:#ff7f0e;stroke-width:1.5;"/>
    <path clip-path="url(#pa310b50f08)" d="M 333.09314 150.277792 
L 333.09314 134.317241 
" style="fill:none;stroke:#ff7f0e;stroke-width:1.5;"/>
    <path clip-path="url(#pa310b50f08)" d="M 449.58542 152.869481 
L 449.58542 137.0236 
" style="fill:none;stroke:#ff7f0e;stroke-width:1.5;"/>
    <path clip-path="url(#pa310b50f08)" d="M 456.546974 107.51438 
L 456.546974 90.987373 
" style="fill:none;stroke:#ff7f0e;stroke-width:1.5;"/>
    <path clip-path="url(#pa310b50f08)" d="M 463.508529 165.23244 
L 463.508529 150.889608 
" style="fill:none;stroke:#ff7f0e;stroke-width:1.5;"/>
    <path clip-path="url(#pa310b50f08)" d="M 470.436125 123.445719 
L 470.436125 107.094709 
" style="fill:none;stroke:#ff7f0e;stroke-width:1.5;"/>
    <path clip-path="url(#pa310b50f08)" d="M 477.39768 137.026685 
L 477.39768 120.461213 
" style="fill:none;stroke:#ff7f0e;stroke-width:1.5;"/>
    <path clip-path="url(#pa310b50f08)" d="M 484.359234 157.180859 
L 484.359234 141.896716 
" style="fill:none;stroke:#ff7f0e;stroke-width:1.5;"/>
    <path clip-path="url(#pa310b50f08)" d="M 491.320789 118.330926 
L 491.320789 101.773074 
" style="fill:none;stroke:#ff7f0e;stroke-width:1.5;"/>
    <path clip-path="url(#pa310b50f08)" d="M 498.282344 135.195955 
L 498.282344 118.347437 
" style="fill:none;stroke:#ff7f0e;stroke-width:1.5;"/>
    <path clip-path="url(#pa310b50f08)" d="M 505.20994 150.64285 
L 505.20994 134.986392 
" style="fill:none;stroke:#ff7f0e;stroke-width:1.5;"/>
    <path clip-path="url(#pa310b50f08)" d="M 512.171494 111.939883 
L 512.171494 94.87908 
" style="fill:none;stroke:#ff7f0e;stroke-width:1.5;"/>
    <path clip-path="url(#pa310b50f08)" d="M 519.133049 152.238614 
L 519.133049 135.734832 
" style="fill:none;stroke:#ff7f0e;stroke-width:1.5;"/>
   </g>
   <g id="line2d_27">
    <path clip-path="url(#pa310b50f08)" d="M 101.847273 44.896896 
L 102.186861 45.455919 
L 102.526449 46.99459 
L 102.866037 49.491238 
L 103.545213 57.210186 
L 104.224389 68.200597 
L 105.243153 89.512699 
L 108.978621 175.782534 
L 109.657798 185.707282 
L 110.336974 192.244447 
L 110.676562 194.133132 
L 111.01615 195.067234 
L 111.355738 195.036249 
L 111.695326 194.042233 
L 112.034914 192.09975 
L 112.71409 185.488779 
L 113.393266 175.558117 
L 114.41203 155.627009 
L 116.10997 115.073451 
L 117.468322 83.582403 
L 118.487086 64.804634 
L 119.166262 55.844757 
L 119.845439 50.284093 
L 120.185027 48.872157 
L 120.524615 48.398853 
L 120.864203 48.868722 
L 121.203791 50.274046 
L 121.543379 52.59496 
L 122.222555 59.845224 
L 122.901731 70.232154 
L 123.920495 90.457118 
L 127.655963 172.884013 
L 128.335139 182.452667 
L 129.014315 188.803428 
L 129.353903 190.665739 
L 129.693492 191.618569 
L 130.03308 191.651093 
L 130.372668 190.764464 
L 130.712256 188.971778 
L 131.391432 182.779026 
L 132.070608 173.405419 
L 133.089372 154.504524 
L 134.787312 115.878726 
L 136.145664 85.762958 
L 137.164428 67.730689 
L 137.843604 59.081218 
L 138.52278 53.662367 
L 138.862368 52.255645 
L 139.201956 51.743581 
L 139.541545 52.131294 
L 139.881133 53.412207 
L 140.220721 55.568146 
L 140.899897 62.376111 
L 141.579073 72.191248 
L 142.597837 91.382861 
L 146.333305 170.133165 
L 147.012481 179.356939 
L 147.691657 185.524248 
L 148.031245 187.358506 
L 148.370833 188.326305 
L 148.710421 188.416554 
L 149.050009 187.629582 
L 149.389597 185.977118 
L 150.068774 180.178438 
L 150.74795 171.332172 
L 151.766714 153.409942 
L 153.464654 116.622532 
L 154.823006 87.823857 
L 155.84177 70.509261 
L 156.520946 62.161092 
L 157.200122 56.883086 
L 157.53971 55.48417 
L 157.879298 54.937946 
L 158.218886 55.25005 
L 158.558474 56.414957 
L 158.898062 58.41607 
L 159.577239 64.80671 
L 160.256415 74.080133 
L 161.275179 92.289595 
L 163.312707 135.872615 
L 164.671059 162.125009 
L 165.350235 172.305571 
L 166.029411 179.791399 
L 166.708587 184.20422 
L 167.048175 185.183537 
L 167.387763 185.326122 
L 167.727351 184.631555 
L 168.066939 183.110294 
L 168.406527 180.783523 
L 169.085703 173.849908 
L 169.76488 164.200178 
L 170.783644 145.777494 
L 174.179524 78.147329 
L 174.8587 68.777143 
L 175.537876 62.138144 
L 175.877464 59.953415 
L 176.217052 58.564648 
L 176.55664 57.988525 
L 176.896228 58.231141 
L 177.235816 59.287943 
L 177.575404 61.143803 
L 178.25458 67.140754 
L 178.933756 75.901016 
L 179.952521 93.177056 
L 181.990049 134.719321 
L 183.348401 159.859539 
L 184.027577 169.649503 
L 184.706753 176.883557 
L 185.385929 181.195986 
L 185.725517 182.183654 
L 186.065105 182.373558 
L 186.404693 181.764594 
L 186.744281 180.366044 
L 187.083869 178.197434 
L 187.763045 171.677596 
L 188.442221 162.552674 
L 189.460986 145.063928 
L 192.856866 80.460132 
L 193.536042 71.441306 
L 194.215218 65.014558 
L 194.554806 62.880203 
L 194.894394 61.503692 
L 195.233982 60.901613 
L 195.57357 61.080466 
L 195.913158 62.036587 
L 196.252746 63.756222 
L 196.931922 69.38185 
L 197.611098 77.656052 
L 198.629862 94.045047 
L 200.327803 126.974304 
L 201.686155 152.243388 
L 202.704919 167.126337 
L 203.384095 174.115526 
L 204.063271 178.327211 
L 204.402859 179.320331 
L 204.742447 179.552883 
L 205.082035 179.023148 
L 205.421623 177.739314 
L 205.761211 175.719355 
L 206.440387 169.590258 
L 207.119563 160.962789 
L 208.138327 144.362021 
L 211.534208 82.65292 
L 212.213384 73.97347 
L 212.89256 67.753863 
L 213.232148 65.669994 
L 213.571736 64.307631 
L 213.911324 63.683242 
L 214.250912 63.803676 
L 214.5905 64.666093 
L 214.930088 66.258017 
L 215.609264 71.533484 
L 216.28844 79.347346 
L 217.307204 94.893432 
L 219.005144 126.262976 
L 220.363497 150.433147 
L 221.382261 164.729608 
L 222.061437 171.480752 
L 222.740613 175.591593 
L 223.080201 176.587513 
L 223.419789 176.858371 
L 223.759377 176.40189 
L 224.098965 175.225246 
L 224.438553 173.344962 
L 225.117729 167.584793 
L 225.796905 159.428799 
L 226.815669 143.672251 
L 230.551138 80.28806 
L 231.230314 73.057399 
L 231.90949 68.329041 
L 232.249078 66.982519 
L 232.588666 66.339184 
L 232.928254 66.406193 
L 233.267842 67.181459 
L 233.60743 68.653694 
L 234.286606 73.599021 
L 234.965782 80.976953 
L 235.984546 95.722127 
L 237.682486 125.604011 
L 239.040838 148.721531 
L 240.059603 162.453158 
L 240.738779 168.972981 
L 241.417955 172.983105 
L 241.757543 173.979406 
L 242.097131 174.284536 
L 242.436719 173.895712 
L 242.776307 172.819176 
L 243.115895 171.070094 
L 243.795071 165.658198 
L 244.474247 157.949015 
L 245.493011 142.995027 
L 249.22848 82.430879 
L 249.907656 75.458535 
L 250.586832 70.863321 
L 250.92642 69.534143 
L 251.266008 68.874967 
L 251.605596 68.893211 
L 251.945184 69.587478 
L 252.284772 70.947589 
L 252.963948 75.581712 
L 253.643124 82.546874 
L 254.661888 96.531102 
L 256.359828 124.994131 
L 257.71818 147.103394 
L 258.736944 160.291118 
L 259.416121 166.586245 
L 260.095297 170.495986 
L 260.434885 171.490467 
L 260.774473 171.826121 
L 261.114061 171.499715 
L 261.453649 170.516624 
L 261.793237 168.890747 
L 262.472413 163.807572 
L 263.151589 156.521779 
L 264.170353 142.330694 
L 267.905821 84.464684 
L 268.584997 77.742593 
L 269.264174 73.278542 
L 269.603762 71.96804 
L 269.94335 71.295881 
L 270.282938 71.269707 
L 270.622526 71.888751 
L 270.962114 73.143865 
L 271.64129 77.484696 
L 272.320466 84.059065 
L 273.33923 97.320369 
L 275.03717 124.430248 
L 276.395522 145.573848 
L 277.414286 158.237903 
L 278.093462 164.314848 
L 278.772638 168.12473 
L 279.112227 169.115391 
L 279.451815 169.478094 
L 279.791403 169.209201 
L 280.130991 168.313289 
L 280.470579 166.803071 
L 281.149755 162.030106 
L 281.828931 155.145471 
L 282.847695 141.679538 
L 286.583163 86.394859 
L 287.262339 79.915133 
L 287.941515 75.580159 
L 288.281103 74.289505 
L 288.620691 73.606994 
L 288.960279 73.540454 
L 289.299868 74.089695 
L 289.639456 75.246525 
L 290.318632 79.311003 
L 290.997808 85.515427 
L 292.016572 98.089985 
L 293.714512 123.909452 
L 295.072864 144.12825 
L 296.091628 156.288189 
L 296.770804 162.153357 
L 297.44998 165.864075 
L 297.789568 166.849103 
L 298.129156 167.235633 
L 298.468744 167.019665 
L 298.808332 166.205038 
L 299.147921 164.803362 
L 299.827097 160.323087 
L 300.506273 153.818502 
L 301.525037 141.04179 
L 303.562565 110.450742 
L 304.920917 92.0175 
L 305.600093 84.866872 
L 306.279269 79.606971 
L 306.958445 76.5036 
L 307.298033 75.813153 
L 307.637621 75.710023 
L 307.977209 76.194545 
L 308.316797 77.259415 
L 308.995974 81.063556 
L 309.67515 86.917814 
L 310.693914 98.840043 
L 312.052266 118.330347 
L 313.750206 142.762195 
L 314.76897 154.436909 
L 315.448146 160.09659 
L 316.127322 163.708989 
L 316.46691 164.686749 
L 316.806498 165.09412 
L 317.146086 164.926786 
L 317.485674 164.187905 
L 317.825262 162.888057 
L 318.504438 158.683892 
L 319.183615 152.539323 
L 320.202379 140.417631 
L 321.900319 116.157713 
L 323.258671 97.611029 
L 324.277435 86.730691 
L 324.956611 81.647787 
L 325.635787 78.615167 
L 325.975375 77.919 
L 326.314963 77.782796 
L 326.654551 78.207366 
L 326.994139 79.186232 
L 327.333727 80.705725 
L 328.012903 85.277193 
L 328.692079 91.678039 
L 329.710844 103.949539 
L 333.106724 149.302491 
L 333.7859 155.637513 
L 334.465076 160.153763 
L 334.804664 161.654665 
L 335.144252 162.623683 
L 335.48384 163.049136 
L 335.823428 162.926425 
L 336.163016 162.258084 
L 336.502604 161.053732 
L 337.18178 157.109986 
L 337.860956 151.306417 
L 338.879721 139.807197 
L 340.577661 116.695063 
L 341.936013 98.95386 
L 342.954777 88.501241 
L 343.633953 83.59047 
L 344.313129 80.628835 
L 344.652717 79.928977 
L 344.992305 79.76297 
L 345.331893 80.132057 
L 345.671481 81.030525 
L 346.011069 82.445793 
L 346.690245 86.743197 
L 347.369421 92.795031 
L 348.388185 104.44338 
L 351.784066 147.764005 
L 352.463242 153.860579 
L 353.142418 158.231176 
L 353.482006 159.696509 
L 353.821594 160.655464 
L 354.161182 161.096445 
L 354.50077 161.01461 
L 354.840358 160.411918 
L 355.179946 159.297092 
L 355.859122 155.598921 
L 356.538298 150.118304 
L 357.557062 139.210583 
L 359.255003 117.19327 
L 360.613355 100.223691 
L 361.632119 90.183057 
L 362.311295 85.439621 
L 362.990471 82.549028 
L 363.330059 81.847333 
L 363.669647 81.654566 
L 364.009235 81.972358 
L 364.348823 82.795705 
L 364.688411 84.113045 
L 365.367587 88.151688 
L 366.046763 93.872738 
L 367.065527 104.928647 
L 370.800996 149.426545 
L 371.480172 154.506299 
L 372.159348 157.830131 
L 372.498936 158.77784 
L 372.838524 159.231994 
L 373.178112 159.187537 
L 373.5177 158.6459 
L 373.857288 157.614972 
L 374.536464 154.148331 
L 375.21564 148.97354 
L 376.234404 138.627841 
L 377.932344 117.65477 
L 379.290697 101.424325 
L 380.309461 91.780463 
L 380.988637 87.199629 
L 381.667813 84.379977 
L 382.007401 83.678138 
L 382.346989 83.461436 
L 382.686577 83.731856 
L 383.026165 84.485049 
L 383.365753 85.710403 
L 384.044929 89.504775 
L 384.724105 94.912348 
L 385.742869 105.405056 
L 389.478338 147.922985 
L 390.157514 152.821197 
L 390.83669 156.051335 
L 391.176278 156.986749 
L 391.515866 157.451903 
L 391.855454 157.441557 
L 392.195042 156.956661 
L 392.53463 156.004328 
L 393.213806 152.755932 
L 393.892982 147.870716 
L 394.911746 138.058993 
L 396.609686 118.081862 
L 397.968038 102.559376 
L 398.986803 93.297576 
L 399.665979 88.874684 
L 400.345155 86.125726 
L 400.684743 85.425283 
L 401.024331 85.187271 
L 401.363919 85.413992 
L 401.703507 86.101703 
L 402.043095 87.240678 
L 402.722271 90.804497 
L 403.401447 95.915027 
L 404.420211 105.872365 
L 408.155679 146.495925 
L 408.834856 151.218269 
L 409.514032 154.356114 
L 409.85362 155.278303 
L 410.193208 155.752455 
L 410.532796 155.773175 
L 410.872384 155.340972 
L 411.211972 154.462235 
L 411.891148 151.419521 
L 412.570324 146.80846 
L 413.589088 137.504027 
L 415.287028 118.476711 
L 416.64538 103.632273 
L 417.664144 94.738318 
L 418.34332 90.468783 
L 419.022497 87.790141 
L 419.362085 87.092492 
L 419.701673 86.835606 
L 420.041261 87.022065 
L 420.380849 87.648687 
L 420.720437 88.706577 
L 421.399613 92.052827 
L 422.078789 96.881915 
L 423.097553 106.330378 
L 426.833021 145.141589 
L 427.512197 149.69361 
L 428.191373 152.740637 
L 428.530961 153.648785 
L 428.87055 154.130094 
L 429.210138 154.179041 
L 429.549726 153.79573 
L 429.889314 152.985882 
L 430.56849 150.136966 
L 431.247666 145.785432 
L 432.26643 136.962901 
L 433.96437 118.841358 
L 435.322722 104.646273 
L 436.341486 96.106424 
L 437.020662 91.985741 
L 437.699838 89.376918 
L 438.039426 88.68333 
L 438.379014 88.409825 
L 438.718603 88.559238 
L 439.058191 89.128903 
L 439.397779 90.1107 
L 440.076955 93.251672 
L 440.756131 97.814128 
L 441.774895 106.778935 
L 443.812423 128.250872 
L 445.170775 141.193854 
L 445.849951 146.216312 
L 446.529127 149.912165 
L 447.208303 152.09464 
L 447.547891 152.581416 
L 447.887479 152.655943 
L 448.227067 152.317961 
L 448.566656 151.572566 
L 449.245832 148.906216 
L 449.925008 144.80033 
L 450.943772 136.435547 
L 452.302124 122.756719 
L 454.000064 105.604468 
L 455.018828 97.405452 
L 455.698004 93.429196 
L 456.37718 90.889587 
L 456.716768 90.201203 
L 457.056356 89.91317 
L 457.395944 90.028545 
L 457.735532 90.545138 
L 458.07512 91.455549 
L 458.754297 94.402876 
L 459.433473 98.712757 
L 460.452237 107.217909 
L 462.150177 124.245347 
L 463.508529 137.266874 
L 464.527293 144.90843 
L 465.206469 148.479855 
L 465.885645 150.61247 
L 466.225233 151.103161 
L 466.564821 151.200806 
L 466.904409 150.90481 
L 467.243997 150.219693 
L 467.923173 147.725287 
L 468.60235 143.851886 
L 469.621114 135.921874 
L 470.979466 122.901917 
L 472.677406 106.509792 
L 473.69617 98.63879 
L 474.375346 94.80262 
L 475.054522 92.331525 
L 475.39411 91.649374 
L 475.733698 91.348746 
L 476.073286 91.432893 
L 476.412874 91.900063 
L 476.752462 92.743531 
L 477.431638 95.508218 
L 478.110814 99.578868 
L 479.129579 107.647207 
L 480.827519 123.868969 
L 482.185871 136.324909 
L 483.204635 143.666006 
L 483.883811 147.116425 
L 484.562987 149.199025 
L 484.902575 149.692212 
L 485.242163 149.810683 
L 485.581751 149.55354 
L 485.921339 148.924769 
L 486.260927 147.933176 
L 486.940103 144.920065 
L 487.619279 140.674943 
L 488.638044 132.501587 
L 492.033924 102.089933 
L 492.7131 97.807612 
L 493.392276 94.736343 
L 493.731864 93.705955 
L 494.071452 93.030962 
L 494.41104 92.719525 
L 494.750628 92.775071 
L 495.090216 93.196248 
L 495.429804 93.976958 
L 496.10898 96.569419 
L 496.788156 100.413502 
L 497.80692 108.066767 
L 499.504861 123.520032 
L 500.863213 135.43416 
L 501.881977 142.485854 
L 502.561153 145.818646 
L 503.240329 147.851199 
L 503.579917 148.345583 
L 503.919505 148.482749 
L 504.259093 148.261525 
L 504.598681 147.685399 
L 504.938269 146.762466 
L 505.617445 143.930845 
L 506.296621 139.917799 
L 507.315385 132.160194 
L 511.050854 100.92114 
L 511.73003 97.352466 
L 512.409206 95.015961 
L 512.748794 94.348949 
L 513.088382 94.028355 
L 513.42797 94.057751 
L 513.767558 94.436156 
L 514.107146 95.158054 
L 514.786322 97.588142 
L 515.465498 101.217674 
L 516.484262 108.476551 
L 518.182202 123.196826 
L 519.540555 134.59196 
L 520.559319 141.36494 
L 521.238495 144.583435 
L 521.917671 146.56602 
L 522.257259 147.06042 
L 522.596847 147.2143 
L 522.936435 147.026244 
L 523.276023 146.499282 
L 523.615611 145.64084 
L 524.294787 142.980546 
L 524.973963 139.18743 
L 525.992727 131.825056 
L 525.992727 131.825056 
" style="fill:none;stroke:#ff7f0e;stroke-linecap:square;stroke-opacity:0.4;stroke-width:2.5;"/>
   </g>
   <g id="line2d_28">
    <defs>
     <path d="M 0 2.5 
C 0.663008 2.5 1.29895 2.236584 1.767767 1.767767 
C 2.236584 1.29895 2.5 0.663008 2.5 0 
C 2.5 -0.663008 2.236584 -1.29895 1.767767 -1.767767 
C 1.29895 -2.236584 0.663008 -2.5 0 -2.5 
C -0.663008 -2.5 -1.29895 -2.236584 -1.767767 -1.767767 
C -2.236584 -1.29895 -2.5 -0.663008 -2.5 0 
C -2.5 0.663008 -2.236584 1.29895 -1.767767 1.767767 
C -1.29895 2.236584 -0.663008 2.5 0 2.5 
z
" id="m4c0f1ce255" style="stroke:#ff7f0e;"/>
    </defs>
    <g clip-path="url(#pa310b50f08)">
     <use style="fill:#ff7f0e;stroke:#ff7f0e;" x="101.847273" xlink:href="#m4c0f1ce255" y="34.139318"/>
     <use style="fill:#ff7f0e;stroke:#ff7f0e;" x="105.324654" xlink:href="#m4c0f1ce255" y="47.625754"/>
     <use style="fill:#ff7f0e;stroke:#ff7f0e;" x="108.802036" xlink:href="#m4c0f1ce255" y="144.433066"/>
     <use style="fill:#ff7f0e;stroke:#ff7f0e;" x="112.279417" xlink:href="#m4c0f1ce255" y="194.860322"/>
     <use style="fill:#ff7f0e;stroke:#ff7f0e;" x="115.756799" xlink:href="#m4c0f1ce255" y="149.364605"/>
     <use style="fill:#ff7f0e;stroke:#ff7f0e;" x="119.23418" xlink:href="#m4c0f1ce255" y="73.557158"/>
     <use style="fill:#ff7f0e;stroke:#ff7f0e;" x="122.711562" xlink:href="#m4c0f1ce255" y="57.062448"/>
     <use style="fill:#ff7f0e;stroke:#ff7f0e;" x="126.188943" xlink:href="#m4c0f1ce255" y="117.70151"/>
     <use style="fill:#ff7f0e;stroke:#ff7f0e;" x="129.666324" xlink:href="#m4c0f1ce255" y="183.720269"/>
     <use style="fill:#ff7f0e;stroke:#ff7f0e;" x="133.143706" xlink:href="#m4c0f1ce255" y="175.187146"/>
     <use style="fill:#ff7f0e;stroke:#ff7f0e;" x="136.621087" xlink:href="#m4c0f1ce255" y="92.499494"/>
     <use style="fill:#ff7f0e;stroke:#ff7f0e;" x="140.098469" xlink:href="#m4c0f1ce255" y="60.59327"/>
     <use style="fill:#ff7f0e;stroke:#ff7f0e;" x="143.57585" xlink:href="#m4c0f1ce255" y="82.875917"/>
     <use style="fill:#ff7f0e;stroke:#ff7f0e;" x="147.053232" xlink:href="#m4c0f1ce255" y="165.046464"/>
     <use style="fill:#ff7f0e;stroke:#ff7f0e;" x="150.530613" xlink:href="#m4c0f1ce255" y="182.105453"/>
     <use style="fill:#ff7f0e;stroke:#ff7f0e;" x="154.007995" xlink:href="#m4c0f1ce255" y="105.626678"/>
     <use style="fill:#ff7f0e;stroke:#ff7f0e;" x="157.485376" xlink:href="#m4c0f1ce255" y="60.362842"/>
     <use style="fill:#ff7f0e;stroke:#ff7f0e;" x="160.962758" xlink:href="#m4c0f1ce255" y="74.453472"/>
     <use style="fill:#ff7f0e;stroke:#ff7f0e;" x="164.440139" xlink:href="#m4c0f1ce255" y="138.240518"/>
     <use style="fill:#ff7f0e;stroke:#ff7f0e;" x="167.917521" xlink:href="#m4c0f1ce255" y="192.784648"/>
     <use style="fill:#ff7f0e;stroke:#ff7f0e;" x="171.394902" xlink:href="#m4c0f1ce255" y="148.745894"/>
     <use style="fill:#ff7f0e;stroke:#ff7f0e;" x="275.716346" xlink:href="#m4c0f1ce255" y="143.87423"/>
     <use style="fill:#ff7f0e;stroke:#ff7f0e;" x="280.932418" xlink:href="#m4c0f1ce255" y="177.451517"/>
     <use style="fill:#ff7f0e;stroke:#ff7f0e;" x="286.148491" xlink:href="#m4c0f1ce255" y="85.497725"/>
     <use style="fill:#ff7f0e;stroke:#ff7f0e;" x="291.364563" xlink:href="#m4c0f1ce255" y="85.104"/>
     <use style="fill:#ff7f0e;stroke:#ff7f0e;" x="296.580635" xlink:href="#m4c0f1ce255" y="175.918349"/>
     <use style="fill:#ff7f0e;stroke:#ff7f0e;" x="301.796707" xlink:href="#m4c0f1ce255" y="134.640749"/>
     <use style="fill:#ff7f0e;stroke:#ff7f0e;" x="307.012779" xlink:href="#m4c0f1ce255" y="72.178214"/>
     <use style="fill:#ff7f0e;stroke:#ff7f0e;" x="312.228852" xlink:href="#m4c0f1ce255" y="105.281942"/>
     <use style="fill:#ff7f0e;stroke:#ff7f0e;" x="317.444924" xlink:href="#m4c0f1ce255" y="173.79913"/>
     <use style="fill:#ff7f0e;stroke:#ff7f0e;" x="322.660996" xlink:href="#m4c0f1ce255" y="100.878394"/>
     <use style="fill:#ff7f0e;stroke:#ff7f0e;" x="327.877068" xlink:href="#m4c0f1ce255" y="72.63"/>
     <use style="fill:#ff7f0e;stroke:#ff7f0e;" x="333.09314" xlink:href="#m4c0f1ce255" y="142.297517"/>
     <use style="fill:#ff7f0e;stroke:#ff7f0e;" x="449.58542" xlink:href="#m4c0f1ce255" y="144.946541"/>
     <use style="fill:#ff7f0e;stroke:#ff7f0e;" x="456.546974" xlink:href="#m4c0f1ce255" y="99.250877"/>
     <use style="fill:#ff7f0e;stroke:#ff7f0e;" x="463.508529" xlink:href="#m4c0f1ce255" y="158.061024"/>
     <use style="fill:#ff7f0e;stroke:#ff7f0e;" x="470.436125" xlink:href="#m4c0f1ce255" y="115.270214"/>
     <use style="fill:#ff7f0e;stroke:#ff7f0e;" x="477.39768" xlink:href="#m4c0f1ce255" y="128.743949"/>
     <use style="fill:#ff7f0e;stroke:#ff7f0e;" x="484.359234" xlink:href="#m4c0f1ce255" y="149.538787"/>
     <use style="fill:#ff7f0e;stroke:#ff7f0e;" x="491.320789" xlink:href="#m4c0f1ce255" y="110.052"/>
     <use style="fill:#ff7f0e;stroke:#ff7f0e;" x="498.282344" xlink:href="#m4c0f1ce255" y="126.771696"/>
     <use style="fill:#ff7f0e;stroke:#ff7f0e;" x="505.20994" xlink:href="#m4c0f1ce255" y="142.814621"/>
     <use style="fill:#ff7f0e;stroke:#ff7f0e;" x="512.171494" xlink:href="#m4c0f1ce255" y="103.409482"/>
     <use style="fill:#ff7f0e;stroke:#ff7f0e;" x="519.133049" xlink:href="#m4c0f1ce255" y="143.986723"/>
    </g>
   </g>
   <g id="patch_3">
    <path d="M 80.64 203.04 
L 80.64 21.6 
" style="fill:none;stroke:#000000;stroke-linecap:square;stroke-linejoin:miter;"/>
   </g>
   <g id="patch_4">
    <path d="M 547.2 203.04 
L 547.2 21.6 
" style="fill:none;stroke:#000000;stroke-linecap:square;stroke-linejoin:miter;"/>
   </g>
   <g id="patch_5">
    <path d="M 80.64 203.04 
L 547.2 203.04 
" style="fill:none;stroke:#000000;stroke-linecap:square;stroke-linejoin:miter;"/>
   </g>
   <g id="patch_6">
    <path d="M 80.64 21.6 
L 547.2 21.6 
" style="fill:none;stroke:#000000;stroke-linecap:square;stroke-linejoin:miter;"/>
   </g>
   <g id="legend_1">
    <g id="patch_7">
     <path d="M 360.9 57.147656 
L 536.7 57.147656 
Q 539.7 57.147656 539.7 54.147656 
L 539.7 32.1 
Q 539.7 29.1 536.7 29.1 
L 360.9 29.1 
Q 357.9 29.1 357.9 32.1 
L 357.9 54.147656 
Q 357.9 57.147656 360.9 57.147656 
z
" style="fill:#ffffff;opacity:0.8;stroke:#cccccc;stroke-linejoin:miter;"/>
    </g>
    <g id="LineCollection_2">
     <path d="M 378.9 48.747656 
L 378.9 33.747656 
" style="fill:none;stroke:#ff7f0e;stroke-width:1.5;"/>
    </g>
    <g id="line2d_29"/>
    <g id="line2d_30">
     <g>
      <use style="fill:#ff7f0e;stroke:#ff7f0e;" x="378.9" xlink:href="#m4c0f1ce255" y="41.247656"/>
     </g>
    </g>
    <g id="text_7">
     <!-- $P_{gg}$  $\Omega = 1.82MHz$ -->
     <defs>
      <path d="M 16.890625 72.90625 
L 39.703125 72.90625 
Q 49.65625 72.90625 54.875 68.265625 
Q 60.109375 63.625 60.109375 54.6875 
Q 60.109375 42.671875 52.390625 35.984375 
Q 44.671875 29.296875 30.71875 29.296875 
L 18.3125 29.296875 
L 12.59375 0 
L 2.6875 0 
z
M 25.203125 64.796875 
L 19.921875 37.40625 
L 32.328125 37.40625 
Q 40.71875 37.40625 45.203125 41.703125 
Q 49.703125 46 49.703125 54 
Q 49.703125 59.125 46.65625 61.953125 
Q 43.609375 64.796875 38.09375 64.796875 
z
" id="DejaVuSans-Oblique-80"/>
      <path d="M 59.625 54.6875 
L 50.296875 6.78125 
Q 47.609375 -7.125 40.015625 -13.953125 
Q 32.421875 -20.796875 19.578125 -20.796875 
Q 14.84375 -20.796875 10.78125 -20.09375 
Q 6.734375 -19.390625 3.21875 -17.921875 
L 4.890625 -9.1875 
Q 8.203125 -11.328125 11.90625 -12.34375 
Q 15.625 -13.375 19.828125 -13.375 
Q 28.375 -13.375 33.859375 -8.703125 
Q 39.359375 -4.046875 41.109375 4.6875 
L 41.890625 8.796875 
Q 38.140625 4.5 33.15625 2.25 
Q 28.171875 0 22.40625 0 
Q 14.109375 0 9.34375 5.484375 
Q 4.59375 10.984375 4.59375 20.609375 
Q 4.59375 28.171875 7.46875 35.421875 
Q 10.359375 42.671875 15.578125 48.296875 
Q 19.046875 52 23.65625 54 
Q 28.265625 56 33.296875 56 
Q 38.8125 56 42.90625 53.4375 
Q 47.015625 50.875 49.03125 46.1875 
L 50.59375 54.6875 
z
M 46.09375 34.625 
Q 46.09375 41.265625 42.96875 44.875 
Q 39.84375 48.484375 34.078125 48.484375 
Q 30.515625 48.484375 27.296875 47.0625 
Q 24.078125 45.65625 21.78125 43.109375 
Q 18.0625 38.921875 15.984375 33.234375 
Q 13.921875 27.546875 13.921875 21.484375 
Q 13.921875 14.75 17.0625 11.125 
Q 20.21875 7.515625 26.125 7.515625 
Q 34.671875 7.515625 40.375 15.25 
Q 46.09375 23 46.09375 34.625 
z
" id="DejaVuSans-Oblique-103"/>
      <path id="DejaVuSans-32"/>
      <path d="M 72.609375 8.6875 
L 72.609375 0 
L 43.3125 0 
L 43.3125 8.6875 
Q 51.953125 13.421875 56.78125 21.53125 
Q 61.625 29.640625 61.625 39.5 
Q 61.625 51.21875 55.171875 58.296875 
Q 48.734375 65.375 38.1875 65.375 
Q 27.640625 65.375 21.171875 58.265625 
Q 14.703125 51.171875 14.703125 39.5 
Q 14.703125 29.640625 19.53125 21.53125 
Q 24.421875 13.421875 33.109375 8.6875 
L 33.109375 0 
L 3.8125 0 
L 3.8125 8.6875 
L 19.390625 8.6875 
Q 11.671875 15.484375 8.109375 22.75 
Q 4.59375 30.03125 4.59375 39.015625 
Q 4.59375 54.546875 13.96875 64.15625 
Q 23.296875 73.78125 38.1875 73.78125 
Q 52.984375 73.78125 62.40625 64.15625 
Q 71.78125 54.59375 71.78125 39.5 
Q 71.78125 30.03125 68.3125 22.796875 
Q 64.84375 15.578125 56.984375 8.6875 
z
" id="DejaVuSans-937"/>
      <path d="M 10.59375 45.40625 
L 73.1875 45.40625 
L 73.1875 37.203125 
L 10.59375 37.203125 
z
M 10.59375 25.484375 
L 73.1875 25.484375 
L 73.1875 17.1875 
L 10.59375 17.1875 
z
" id="DejaVuSans-61"/>
      <path d="M 16.890625 72.90625 
L 31.6875 72.90625 
L 40.1875 23.78125 
L 68.40625 72.90625 
L 83.59375 72.90625 
L 69.390625 0 
L 59.8125 0 
L 72.21875 63.921875 
L 43.609375 14.015625 
L 33.984375 14.015625 
L 24.703125 64.109375 
L 12.3125 0 
L 2.6875 0 
z
" id="DejaVuSans-Oblique-77"/>
      <path d="M 16.890625 72.90625 
L 26.8125 72.90625 
L 21 43.015625 
L 56.78125 43.015625 
L 62.59375 72.90625 
L 72.515625 72.90625 
L 58.296875 0 
L 48.390625 0 
L 55.171875 34.71875 
L 19.390625 34.71875 
L 12.59375 0 
L 2.6875 0 
z
" id="DejaVuSans-Oblique-72"/>
      <path d="M 11.625 54.6875 
L 54.296875 54.6875 
L 52.6875 46.484375 
L 11.53125 7.171875 
L 45.515625 7.171875 
L 44.09375 0 
L -0.296875 0 
L 1.3125 8.203125 
L 42.484375 47.515625 
L 10.203125 47.515625 
z
" id="DejaVuSans-Oblique-122"/>
     </defs>
     <g transform="translate(405.9 46.497656)scale(0.15 -0.15)">
      <use transform="translate(0 0.78125)" xlink:href="#DejaVuSans-Oblique-80"/>
      <use transform="translate(60.302734 -15.625)scale(0.7)" xlink:href="#DejaVuSans-Oblique-103"/>
      <use transform="translate(104.736328 -15.625)scale(0.7)" xlink:href="#DejaVuSans-Oblique-103"/>
      <use transform="translate(151.904297 0.78125)" xlink:href="#DejaVuSans-32"/>
      <use transform="translate(183.691406 0.78125)" xlink:href="#DejaVuSans-32"/>
      <use transform="translate(215.478516 0.78125)" xlink:href="#DejaVuSans-937"/>
      <use transform="translate(311.376953 0.78125)" xlink:href="#DejaVuSans-61"/>
      <use transform="translate(414.648438 0.78125)" xlink:href="#DejaVuSans-49"/>
      <use transform="translate(478.271484 0.78125)" xlink:href="#DejaVuSans-46"/>
      <use transform="translate(510.027344 0.78125)" xlink:href="#DejaVuSans-56"/>
      <use transform="translate(573.650391 0.78125)" xlink:href="#DejaVuSans-50"/>
      <use transform="translate(637.273438 0.78125)" xlink:href="#DejaVuSans-Oblique-77"/>
      <use transform="translate(723.552734 0.78125)" xlink:href="#DejaVuSans-Oblique-72"/>
      <use transform="translate(798.748047 0.78125)" xlink:href="#DejaVuSans-Oblique-122"/>
     </g>
    </g>
   </g>
  </g>
  <g id="axes_2">
   <g id="patch_8">
    <path d="M 80.64 384.48 
L 547.2 384.48 
L 547.2 203.04 
L 80.64 203.04 
z
" style="fill:#ffffff;"/>
   </g>
   <g id="matplotlib.axis_3">
    <g id="xtick_8">
     <g id="line2d_31">
      <g>
       <use style="stroke:#000000;stroke-width:1.5;" x="101.847273" xlink:href="#m6e8d1e976b" y="384.48"/>
      </g>
     </g>
     <g id="line2d_32">
      <g>
       <use style="stroke:#000000;stroke-width:1.5;" x="101.847273" xlink:href="#m846fec7543" y="203.04"/>
      </g>
     </g>
     <g id="text_8">
      <!-- 0 -->
      <g transform="translate(97.075398 399.377656)scale(0.15 -0.15)">
       <use xlink:href="#DejaVuSans-48"/>
      </g>
     </g>
    </g>
    <g id="xtick_9">
     <g id="line2d_33">
      <g>
       <use style="stroke:#000000;stroke-width:1.5;" x="169.76488" xlink:href="#m6e8d1e976b" y="384.48"/>
      </g>
     </g>
     <g id="line2d_34">
      <g>
       <use style="stroke:#000000;stroke-width:1.5;" x="169.76488" xlink:href="#m846fec7543" y="203.04"/>
      </g>
     </g>
     <g id="text_9">
      <!-- 2 -->
      <g transform="translate(164.993005 399.377656)scale(0.15 -0.15)">
       <use xlink:href="#DejaVuSans-50"/>
      </g>
     </g>
    </g>
    <g id="xtick_10">
     <g id="line2d_35">
      <g>
       <use style="stroke:#000000;stroke-width:1.5;" x="237.682486" xlink:href="#m6e8d1e976b" y="384.48"/>
      </g>
     </g>
     <g id="line2d_36">
      <g>
       <use style="stroke:#000000;stroke-width:1.5;" x="237.682486" xlink:href="#m846fec7543" y="203.04"/>
      </g>
     </g>
     <g id="text_10">
      <!-- 4 -->
      <g transform="translate(232.910611 399.377656)scale(0.15 -0.15)">
       <use xlink:href="#DejaVuSans-52"/>
      </g>
     </g>
    </g>
    <g id="xtick_11">
     <g id="line2d_37">
      <g>
       <use style="stroke:#000000;stroke-width:1.5;" x="305.600093" xlink:href="#m6e8d1e976b" y="384.48"/>
      </g>
     </g>
     <g id="line2d_38">
      <g>
       <use style="stroke:#000000;stroke-width:1.5;" x="305.600093" xlink:href="#m846fec7543" y="203.04"/>
      </g>
     </g>
     <g id="text_11">
      <!-- 6 -->
      <g transform="translate(300.828218 399.377656)scale(0.15 -0.15)">
       <use xlink:href="#DejaVuSans-54"/>
      </g>
     </g>
    </g>
    <g id="xtick_12">
     <g id="line2d_39">
      <g>
       <use style="stroke:#000000;stroke-width:1.5;" x="373.5177" xlink:href="#m6e8d1e976b" y="384.48"/>
      </g>
     </g>
     <g id="line2d_40">
      <g>
       <use style="stroke:#000000;stroke-width:1.5;" x="373.5177" xlink:href="#m846fec7543" y="203.04"/>
      </g>
     </g>
     <g id="text_12">
      <!-- 8 -->
      <g transform="translate(368.745825 399.377656)scale(0.15 -0.15)">
       <use xlink:href="#DejaVuSans-56"/>
      </g>
     </g>
    </g>
    <g id="xtick_13">
     <g id="line2d_41">
      <g>
       <use style="stroke:#000000;stroke-width:1.5;" x="441.435307" xlink:href="#m6e8d1e976b" y="384.48"/>
      </g>
     </g>
     <g id="line2d_42">
      <g>
       <use style="stroke:#000000;stroke-width:1.5;" x="441.435307" xlink:href="#m846fec7543" y="203.04"/>
      </g>
     </g>
     <g id="text_13">
      <!-- 10 -->
      <g transform="translate(431.891557 399.377656)scale(0.15 -0.15)">
       <use xlink:href="#DejaVuSans-49"/>
       <use x="63.623047" xlink:href="#DejaVuSans-48"/>
      </g>
     </g>
    </g>
    <g id="xtick_14">
     <g id="line2d_43">
      <g>
       <use style="stroke:#000000;stroke-width:1.5;" x="509.352914" xlink:href="#m6e8d1e976b" y="384.48"/>
      </g>
     </g>
     <g id="line2d_44">
      <g>
       <use style="stroke:#000000;stroke-width:1.5;" x="509.352914" xlink:href="#m846fec7543" y="203.04"/>
      </g>
     </g>
     <g id="text_14">
      <!-- 12 -->
      <g transform="translate(499.809164 399.377656)scale(0.15 -0.15)">
       <use xlink:href="#DejaVuSans-49"/>
       <use x="63.623047" xlink:href="#DejaVuSans-50"/>
      </g>
     </g>
    </g>
    <g id="text_15">
     <!-- t (us) -->
     <defs>
      <path d="M 18.3125 70.21875 
L 18.3125 54.6875 
L 36.8125 54.6875 
L 36.8125 47.703125 
L 18.3125 47.703125 
L 18.3125 18.015625 
Q 18.3125 11.328125 20.140625 9.421875 
Q 21.96875 7.515625 27.59375 7.515625 
L 36.8125 7.515625 
L 36.8125 0 
L 27.59375 0 
Q 17.1875 0 13.234375 3.875 
Q 9.28125 7.765625 9.28125 18.015625 
L 9.28125 47.703125 
L 2.6875 47.703125 
L 2.6875 54.6875 
L 9.28125 54.6875 
L 9.28125 70.21875 
z
" id="DejaVuSans-116"/>
      <path d="M 31 75.875 
Q 24.46875 64.65625 21.28125 53.65625 
Q 18.109375 42.671875 18.109375 31.390625 
Q 18.109375 20.125 21.3125 9.0625 
Q 24.515625 -2 31 -13.1875 
L 23.1875 -13.1875 
Q 15.875 -1.703125 12.234375 9.375 
Q 8.59375 20.453125 8.59375 31.390625 
Q 8.59375 42.28125 12.203125 53.3125 
Q 15.828125 64.359375 23.1875 75.875 
z
" id="DejaVuSans-40"/>
      <path d="M 8.5 21.578125 
L 8.5 54.6875 
L 17.484375 54.6875 
L 17.484375 21.921875 
Q 17.484375 14.15625 20.5 10.265625 
Q 23.53125 6.390625 29.59375 6.390625 
Q 36.859375 6.390625 41.078125 11.03125 
Q 45.3125 15.671875 45.3125 23.6875 
L 45.3125 54.6875 
L 54.296875 54.6875 
L 54.296875 0 
L 45.3125 0 
L 45.3125 8.40625 
Q 42.046875 3.421875 37.71875 1 
Q 33.40625 -1.421875 27.6875 -1.421875 
Q 18.265625 -1.421875 13.375 4.4375 
Q 8.5 10.296875 8.5 21.578125 
z
M 31.109375 56 
z
" id="DejaVuSans-117"/>
      <path d="M 44.28125 53.078125 
L 44.28125 44.578125 
Q 40.484375 46.53125 36.375 47.5 
Q 32.28125 48.484375 27.875 48.484375 
Q 21.1875 48.484375 17.84375 46.4375 
Q 14.5 44.390625 14.5 40.28125 
Q 14.5 37.15625 16.890625 35.375 
Q 19.28125 33.59375 26.515625 31.984375 
L 29.59375 31.296875 
Q 39.15625 29.25 43.1875 25.515625 
Q 47.21875 21.78125 47.21875 15.09375 
Q 47.21875 7.46875 41.1875 3.015625 
Q 35.15625 -1.421875 24.609375 -1.421875 
Q 20.21875 -1.421875 15.453125 -0.5625 
Q 10.6875 0.296875 5.421875 2 
L 5.421875 11.28125 
Q 10.40625 8.6875 15.234375 7.390625 
Q 20.0625 6.109375 24.8125 6.109375 
Q 31.15625 6.109375 34.5625 8.28125 
Q 37.984375 10.453125 37.984375 14.40625 
Q 37.984375 18.0625 35.515625 20.015625 
Q 33.0625 21.96875 24.703125 23.78125 
L 21.578125 24.515625 
Q 13.234375 26.265625 9.515625 29.90625 
Q 5.8125 33.546875 5.8125 39.890625 
Q 5.8125 47.609375 11.28125 51.796875 
Q 16.75 56 26.8125 56 
Q 31.78125 56 36.171875 55.265625 
Q 40.578125 54.546875 44.28125 53.078125 
z
" id="DejaVuSans-115"/>
      <path d="M 8.015625 75.875 
L 15.828125 75.875 
Q 23.140625 64.359375 26.78125 53.3125 
Q 30.421875 42.28125 30.421875 31.390625 
Q 30.421875 20.453125 26.78125 9.375 
Q 23.140625 -1.703125 15.828125 -13.1875 
L 8.015625 -13.1875 
Q 14.5 -2 17.703125 9.0625 
Q 20.90625 20.125 20.90625 31.390625 
Q 20.90625 42.671875 17.703125 53.65625 
Q 14.5 64.65625 8.015625 75.875 
z
" id="DejaVuSans-41"/>
     </defs>
     <g transform="translate(290.116406 420.174375)scale(0.18 -0.18)">
      <use xlink:href="#DejaVuSans-116"/>
      <use x="39.208984" xlink:href="#DejaVuSans-32"/>
      <use x="70.996094" xlink:href="#DejaVuSans-40"/>
      <use x="110.009766" xlink:href="#DejaVuSans-117"/>
      <use x="173.388672" xlink:href="#DejaVuSans-115"/>
      <use x="225.488281" xlink:href="#DejaVuSans-41"/>
     </g>
    </g>
   </g>
   <g id="matplotlib.axis_4">
    <g id="ytick_7">
     <g id="line2d_45">
      <g>
       <use style="stroke:#000000;stroke-width:1.5;" x="80.64" xlink:href="#m3bdba9e759" y="384.48"/>
      </g>
     </g>
     <g id="line2d_46">
      <g>
       <use style="stroke:#000000;stroke-width:1.5;" x="547.2" xlink:href="#m7fd1c33a66" y="384.48"/>
      </g>
     </g>
     <g id="text_16">
      <!-- 0 -->
      <g transform="translate(67.59625 390.178828)scale(0.15 -0.15)">
       <use xlink:href="#DejaVuSans-48"/>
      </g>
     </g>
    </g>
    <g id="ytick_8">
     <g id="line2d_47">
      <g>
       <use style="stroke:#000000;stroke-width:1.5;" x="80.64" xlink:href="#m3bdba9e759" y="351.490909"/>
      </g>
     </g>
     <g id="line2d_48">
      <g>
       <use style="stroke:#000000;stroke-width:1.5;" x="547.2" xlink:href="#m7fd1c33a66" y="351.490909"/>
      </g>
     </g>
     <g id="text_17">
      <!-- 0.2 -->
      <g transform="translate(53.285313 357.189737)scale(0.15 -0.15)">
       <use xlink:href="#DejaVuSans-48"/>
       <use x="63.623047" xlink:href="#DejaVuSans-46"/>
       <use x="95.410156" xlink:href="#DejaVuSans-50"/>
      </g>
     </g>
    </g>
    <g id="ytick_9">
     <g id="line2d_49">
      <g>
       <use style="stroke:#000000;stroke-width:1.5;" x="80.64" xlink:href="#m3bdba9e759" y="318.501818"/>
      </g>
     </g>
     <g id="line2d_50">
      <g>
       <use style="stroke:#000000;stroke-width:1.5;" x="547.2" xlink:href="#m7fd1c33a66" y="318.501818"/>
      </g>
     </g>
     <g id="text_18">
      <!-- 0.4 -->
      <g transform="translate(53.285313 324.200646)scale(0.15 -0.15)">
       <use xlink:href="#DejaVuSans-48"/>
       <use x="63.623047" xlink:href="#DejaVuSans-46"/>
       <use x="95.410156" xlink:href="#DejaVuSans-52"/>
      </g>
     </g>
    </g>
    <g id="ytick_10">
     <g id="line2d_51">
      <g>
       <use style="stroke:#000000;stroke-width:1.5;" x="80.64" xlink:href="#m3bdba9e759" y="285.512727"/>
      </g>
     </g>
     <g id="line2d_52">
      <g>
       <use style="stroke:#000000;stroke-width:1.5;" x="547.2" xlink:href="#m7fd1c33a66" y="285.512727"/>
      </g>
     </g>
     <g id="text_19">
      <!-- 0.6 -->
      <g transform="translate(53.285313 291.211555)scale(0.15 -0.15)">
       <use xlink:href="#DejaVuSans-48"/>
       <use x="63.623047" xlink:href="#DejaVuSans-46"/>
       <use x="95.410156" xlink:href="#DejaVuSans-54"/>
      </g>
     </g>
    </g>
    <g id="ytick_11">
     <g id="line2d_53">
      <g>
       <use style="stroke:#000000;stroke-width:1.5;" x="80.64" xlink:href="#m3bdba9e759" y="252.523636"/>
      </g>
     </g>
     <g id="line2d_54">
      <g>
       <use style="stroke:#000000;stroke-width:1.5;" x="547.2" xlink:href="#m7fd1c33a66" y="252.523636"/>
      </g>
     </g>
     <g id="text_20">
      <!-- 0.8 -->
      <g transform="translate(53.285313 258.222464)scale(0.15 -0.15)">
       <use xlink:href="#DejaVuSans-48"/>
       <use x="63.623047" xlink:href="#DejaVuSans-46"/>
       <use x="95.410156" xlink:href="#DejaVuSans-56"/>
      </g>
     </g>
    </g>
    <g id="ytick_12">
     <g id="line2d_55">
      <g>
       <use style="stroke:#000000;stroke-width:1.5;" x="80.64" xlink:href="#m3bdba9e759" y="219.534545"/>
      </g>
     </g>
     <g id="line2d_56">
      <g>
       <use style="stroke:#000000;stroke-width:1.5;" x="547.2" xlink:href="#m7fd1c33a66" y="219.534545"/>
      </g>
     </g>
     <g id="text_21">
      <!-- 1 -->
      <g transform="translate(67.59625 225.233374)scale(0.15 -0.15)">
       <use xlink:href="#DejaVuSans-49"/>
      </g>
     </g>
    </g>
   </g>
   <g id="LineCollection_3">
    <path clip-path="url(#p17b6b131c1)" d="M 101.847273 244.565513 
L 101.847273 226.222589 
" style="fill:none;stroke:#2ca02c;stroke-width:1.5;"/>
    <path clip-path="url(#p17b6b131c1)" d="M 105.324654 243.651715 
L 105.324654 225.961975 
" style="fill:none;stroke:#2ca02c;stroke-width:1.5;"/>
    <path clip-path="url(#p17b6b131c1)" d="M 108.802036 319.204486 
L 108.802036 284.81006 
" style="fill:none;stroke:#2ca02c;stroke-width:1.5;"/>
    <path clip-path="url(#p17b6b131c1)" d="M 112.279417 337.792849 
L 112.279417 305.808606 
" style="fill:none;stroke:#2ca02c;stroke-width:1.5;"/>
    <path clip-path="url(#p17b6b131c1)" d="M 115.756799 373.060001 
L 115.756799 351.490084 
" style="fill:none;stroke:#2ca02c;stroke-width:1.5;"/>
    <path clip-path="url(#p17b6b131c1)" d="M 119.23418 366.509853 
L 119.23418 340.595602 
" style="fill:none;stroke:#2ca02c;stroke-width:1.5;"/>
    <path clip-path="url(#p17b6b131c1)" d="M 122.711562 332.061324 
L 122.711562 301.409181 
" style="fill:none;stroke:#2ca02c;stroke-width:1.5;"/>
    <path clip-path="url(#p17b6b131c1)" d="M 126.188943 269.357475 
L 126.188943 242.287616 
" style="fill:none;stroke:#2ca02c;stroke-width:1.5;"/>
    <path clip-path="url(#p17b6b131c1)" d="M 129.666324 244.565513 
L 129.666324 226.222589 
" style="fill:none;stroke:#2ca02c;stroke-width:1.5;"/>
    <path clip-path="url(#p17b6b131c1)" d="M 133.143706 278.442835 
L 133.143706 247.024685 
" style="fill:none;stroke:#2ca02c;stroke-width:1.5;"/>
    <path clip-path="url(#p17b6b131c1)" d="M 136.621087 330.664896 
L 136.621087 295.841612 
" style="fill:none;stroke:#2ca02c;stroke-width:1.5;"/>
    <path clip-path="url(#p17b6b131c1)" d="M 140.098469 370.31168 
L 140.098469 349.164683 
" style="fill:none;stroke:#2ca02c;stroke-width:1.5;"/>
    <path clip-path="url(#p17b6b131c1)" d="M 143.57585 381.133587 
L 143.57585 363.084595 
" style="fill:none;stroke:#2ca02c;stroke-width:1.5;"/>
    <path clip-path="url(#p17b6b131c1)" d="M 147.053232 340.818938 
L 147.053232 302.007273 
" style="fill:none;stroke:#2ca02c;stroke-width:1.5;"/>
    <path clip-path="url(#p17b6b131c1)" d="M 150.530613 279.082329 
L 150.530613 249.331117 
" style="fill:none;stroke:#2ca02c;stroke-width:1.5;"/>
    <path clip-path="url(#p17b6b131c1)" d="M 154.007995 234.858638 
L 154.007995 221.882709 
" style="fill:none;stroke:#2ca02c;stroke-width:1.5;"/>
    <path clip-path="url(#p17b6b131c1)" d="M 157.485376 250.21341 
L 157.485376 230.092044 
" style="fill:none;stroke:#2ca02c;stroke-width:1.5;"/>
    <path clip-path="url(#p17b6b131c1)" d="M 160.962758 287.157233 
L 160.962758 254.019692 
" style="fill:none;stroke:#2ca02c;stroke-width:1.5;"/>
    <path clip-path="url(#p17b6b131c1)" d="M 164.440139 335.367491 
L 164.440139 300.065865 
" style="fill:none;stroke:#2ca02c;stroke-width:1.5;"/>
    <path clip-path="url(#p17b6b131c1)" d="M 167.917521 376.089225 
L 167.917521 353.597263 
" style="fill:none;stroke:#2ca02c;stroke-width:1.5;"/>
    <path clip-path="url(#p17b6b131c1)" d="M 171.394902 380.499206 
L 171.394902 359.352869 
" style="fill:none;stroke:#2ca02c;stroke-width:1.5;"/>
    <path clip-path="url(#p17b6b131c1)" d="M 275.716346 372.574732 
L 275.716346 350.200541 
" style="fill:none;stroke:#2ca02c;stroke-width:1.5;"/>
    <path clip-path="url(#p17b6b131c1)" d="M 280.932418 337.792849 
L 280.932418 305.808606 
" style="fill:none;stroke:#2ca02c;stroke-width:1.5;"/>
    <path clip-path="url(#p17b6b131c1)" d="M 286.148491 269.357475 
L 286.148491 242.287616 
" style="fill:none;stroke:#2ca02c;stroke-width:1.5;"/>
    <path clip-path="url(#p17b6b131c1)" d="M 291.364563 265.266333 
L 291.364563 238.345915 
" style="fill:none;stroke:#2ca02c;stroke-width:1.5;"/>
    <path clip-path="url(#p17b6b131c1)" d="M 296.580635 331.112228 
L 296.580635 302.8927 
" style="fill:none;stroke:#2ca02c;stroke-width:1.5;"/>
    <path clip-path="url(#p17b6b131c1)" d="M 301.796707 384.48 
L 301.796707 370.734435 
" style="fill:none;stroke:#2ca02c;stroke-width:1.5;"/>
    <path clip-path="url(#p17b6b131c1)" d="M 307.012779 327.58487 
L 307.012779 295.461082 
" style="fill:none;stroke:#2ca02c;stroke-width:1.5;"/>
    <path clip-path="url(#p17b6b131c1)" d="M 312.228852 260.137024 
L 312.228852 236.029586 
" style="fill:none;stroke:#2ca02c;stroke-width:1.5;"/>
    <path clip-path="url(#p17b6b131c1)" d="M 317.444924 312.063997 
L 317.444924 276.241143 
" style="fill:none;stroke:#2ca02c;stroke-width:1.5;"/>
    <path clip-path="url(#p17b6b131c1)" d="M 322.660996 343.98853 
L 322.660996 312.808561 
" style="fill:none;stroke:#2ca02c;stroke-width:1.5;"/>
    <path clip-path="url(#p17b6b131c1)" d="M 327.877068 369.356316 
L 327.877068 341.872775 
" style="fill:none;stroke:#2ca02c;stroke-width:1.5;"/>
    <path clip-path="url(#p17b6b131c1)" d="M 333.09314 357.15728 
L 333.09314 329.329992 
" style="fill:none;stroke:#2ca02c;stroke-width:1.5;"/>
    <path clip-path="url(#p17b6b131c1)" d="M 449.58542 252.524461 
L 449.58542 230.954544 
" style="fill:none;stroke:#2ca02c;stroke-width:1.5;"/>
    <path clip-path="url(#p17b6b131c1)" d="M 456.546974 337.69784 
L 456.546974 307.553069 
" style="fill:none;stroke:#2ca02c;stroke-width:1.5;"/>
    <path clip-path="url(#p17b6b131c1)" d="M 463.508529 329.013792 
L 463.508529 295.618935 
" style="fill:none;stroke:#2ca02c;stroke-width:1.5;"/>
    <path clip-path="url(#p17b6b131c1)" d="M 470.436125 299.213097 
L 470.436125 263.565085 
" style="fill:none;stroke:#2ca02c;stroke-width:1.5;"/>
    <path clip-path="url(#p17b6b131c1)" d="M 477.39768 297.067156 
L 477.39768 263.919718 
" style="fill:none;stroke:#2ca02c;stroke-width:1.5;"/>
    <path clip-path="url(#p17b6b131c1)" d="M 484.359234 364.743122 
L 484.359234 336.737693 
" style="fill:none;stroke:#2ca02c;stroke-width:1.5;"/>
    <path clip-path="url(#p17b6b131c1)" d="M 491.320789 348.084785 
L 491.320789 313.660669 
" style="fill:none;stroke:#2ca02c;stroke-width:1.5;"/>
    <path clip-path="url(#p17b6b131c1)" d="M 498.282344 272.718733 
L 498.282344 245.768295 
" style="fill:none;stroke:#2ca02c;stroke-width:1.5;"/>
    <path clip-path="url(#p17b6b131c1)" d="M 505.20994 319.694374 
L 505.20994 267.825626 
" style="fill:none;stroke:#2ca02c;stroke-width:1.5;"/>
    <path clip-path="url(#p17b6b131c1)" d="M 512.171494 323.319875 
L 512.171494 288.193091 
" style="fill:none;stroke:#2ca02c;stroke-width:1.5;"/>
    <path clip-path="url(#p17b6b131c1)" d="M 519.133049 314.306431 
L 519.133049 284.208833 
" style="fill:none;stroke:#2ca02c;stroke-width:1.5;"/>
   </g>
   <g id="line2d_57">
    <path clip-path="url(#p17b6b131c1)" d="M 101.847273 229.942604 
L 102.186861 230.206283 
L 102.526449 230.923861 
L 102.866037 232.090269 
L 103.545213 235.73495 
L 104.224389 241.043277 
L 105.243153 251.809133 
L 106.261917 265.365333 
L 107.959857 291.96571 
L 110.676562 335.32741 
L 111.695326 348.78361 
L 112.71409 359.442201 
L 113.393266 364.687189 
L 114.072442 368.284384 
L 114.41203 369.435529 
L 114.751618 370.144822 
L 115.091206 370.408152 
L 115.430794 370.224274 
L 115.770382 369.594822 
L 116.10997 368.52429 
L 116.789146 365.092068 
L 117.468322 360.019152 
L 118.147498 353.438991 
L 119.166262 341.127997 
L 120.524615 321.311303 
L 124.599671 258.736622 
L 125.618435 247.139277 
L 126.297611 241.111126 
L 126.976787 236.628189 
L 127.655963 233.80236 
L 127.995551 233.034195 
L 128.335139 232.702794 
L 128.674727 232.809846 
L 129.014315 233.354221 
L 129.353903 234.331981 
L 130.03308 237.55803 
L 130.712256 242.401798 
L 131.391432 248.73576 
L 132.410196 260.659451 
L 133.768548 279.961056 
L 137.843604 341.466503 
L 138.862368 352.990244 
L 139.541545 359.020851 
L 140.220721 363.547448 
L 140.899897 366.45694 
L 141.239485 367.281278 
L 141.579073 367.677942 
L 141.918661 367.644811 
L 142.258249 367.182533 
L 142.597837 366.294511 
L 143.277013 363.268473 
L 143.956189 358.647705 
L 144.635365 352.553964 
L 145.654129 341.00926 
L 147.012481 322.213597 
L 151.087538 261.770303 
L 152.106302 250.323727 
L 152.785478 244.294109 
L 153.464654 239.72805 
L 154.14383 236.739739 
L 154.483418 235.861851 
L 154.823006 235.402663 
L 155.162594 235.364705 
L 155.502182 235.747795 
L 155.84177 236.549048 
L 156.520946 239.381109 
L 157.200122 243.784912 
L 157.879298 249.644312 
L 158.898062 260.818236 
L 160.256415 279.117031 
L 164.671059 342.574439 
L 165.689823 353.053562 
L 166.368999 358.383732 
L 167.048175 362.22765 
L 167.727351 364.489696 
L 168.066939 365.008742 
L 168.406527 365.115026 
L 168.746115 364.808282 
L 169.085703 364.090896 
L 169.425292 362.967895 
L 170.104468 359.5381 
L 170.783644 354.610091 
L 171.802408 344.701726 
L 172.821172 332.301209 
L 174.519112 308.100507 
L 177.235816 268.928125 
L 178.25458 256.85946 
L 179.273344 247.359534 
L 179.952521 242.726588 
L 180.631697 239.594599 
L 180.971285 238.617201 
L 181.310873 238.040894 
L 181.650461 237.868978 
L 181.990049 238.102151 
L 182.329637 238.738505 
L 182.669225 239.773545 
L 183.348401 243.008951 
L 184.027577 247.722217 
L 185.046341 257.282542 
L 186.065105 269.321919 
L 187.763045 292.947958 
L 190.47975 331.465392 
L 191.498514 343.419635 
L 192.517278 352.889446 
L 193.196454 357.550088 
L 193.87563 360.747213 
L 194.215218 361.770711 
L 194.554806 362.401751 
L 194.894394 362.636671 
L 195.233982 362.474362 
L 195.57357 361.916266 
L 195.913158 360.966371 
L 196.592334 357.919652 
L 197.27151 353.415466 
L 197.950686 347.572304 
L 198.96945 336.63916 
L 200.327803 319.038848 
L 204.402859 263.455025 
L 205.421623 253.151604 
L 206.100799 247.795452 
L 206.779975 243.811676 
L 207.459151 241.299712 
L 207.798739 240.616402 
L 208.138327 240.321038 
L 208.477915 240.415127 
L 208.817503 240.897672 
L 209.157091 241.765179 
L 209.836268 244.628797 
L 210.515444 248.929466 
L 211.19462 254.553959 
L 212.213384 265.143094 
L 213.571736 282.285867 
L 217.646792 336.919755 
L 218.665556 347.157728 
L 219.344733 352.516014 
L 220.023909 356.538525 
L 220.703085 359.124756 
L 221.042673 359.857941 
L 221.382261 360.211254 
L 221.721849 360.182806 
L 222.061437 359.773166 
L 222.401025 358.985351 
L 223.080201 356.299362 
L 223.759377 352.196748 
L 224.438553 346.785614 
L 225.457317 336.533102 
L 226.815669 319.839741 
L 230.890726 266.149491 
L 231.90949 255.980129 
L 232.588666 250.622767 
L 233.267842 246.56525 
L 233.947018 243.909052 
L 234.286606 243.128323 
L 234.626194 242.719493 
L 234.965782 242.684815 
L 235.30537 243.024135 
L 235.644958 243.734895 
L 236.324134 246.248614 
L 237.00331 250.158533 
L 237.682486 255.361531 
L 238.70125 265.284711 
L 240.059603 281.536722 
L 244.474247 337.904651 
L 245.493011 347.214772 
L 246.172187 351.950889 
L 246.851363 355.366983 
L 247.530539 357.378075 
L 247.870127 357.840054 
L 248.209715 357.935403 
L 248.549303 357.663879 
L 248.888891 357.027597 
L 249.22848 356.031015 
L 249.907656 352.986288 
L 250.586832 348.610653 
L 251.605596 339.811742 
L 252.62436 328.79869 
L 254.3223 307.303939 
L 257.039004 272.507705 
L 258.057768 261.786076 
L 259.076532 253.345644 
L 259.755709 249.228804 
L 260.434885 246.445071 
L 260.774473 245.575993 
L 261.114061 245.063173 
L 261.453649 244.909546 
L 261.793237 245.115738 
L 262.132825 245.68006 
L 262.472413 246.598526 
L 263.151589 249.470615 
L 263.830765 253.655524 
L 264.849529 262.14531 
L 265.868293 272.837583 
L 267.566233 293.821862 
L 270.282938 328.036217 
L 271.301702 338.656149 
L 272.320466 347.069766 
L 272.999642 351.211163 
L 273.678818 354.052712 
L 274.018406 354.962717 
L 274.357994 355.524134 
L 274.697582 355.733706 
L 275.03717 355.590441 
L 275.376758 355.095615 
L 275.716346 354.252764 
L 276.395522 351.548248 
L 277.074698 347.549033 
L 277.753874 342.360324 
L 278.772638 332.650821 
L 280.130991 317.019002 
L 284.206047 267.64502 
L 285.224811 258.49116 
L 285.903987 253.732095 
L 286.583163 250.191901 
L 287.262339 247.958943 
L 287.601927 247.351116 
L 287.941515 247.087873 
L 288.281103 247.170559 
L 288.620691 247.598294 
L 288.960279 248.36798 
L 289.639456 250.909883 
L 290.318632 254.728347 
L 290.997808 259.722838 
L 292.016572 269.126785 
L 293.374924 284.352185 
L 297.44998 332.882222 
L 298.468744 341.977886 
L 299.147921 346.738804 
L 299.827097 350.313363 
L 300.506273 352.612249 
L 300.845861 353.264359 
L 301.185449 353.579056 
L 301.525037 353.554658 
L 301.864625 353.191665 
L 302.204213 352.492749 
L 302.883389 350.108599 
L 303.562565 346.466036 
L 304.241741 341.661046 
L 305.260505 332.556092 
L 306.618857 317.72989 
L 310.693914 270.038201 
L 311.712678 261.00354 
L 312.391854 256.243484 
L 313.07103 252.637871 
L 313.750206 250.276877 
L 314.089794 249.582555 
L 314.429382 249.218563 
L 314.76897 249.186907 
L 315.108558 249.487455 
L 315.448146 250.117941 
L 316.127322 252.3491 
L 316.806498 255.820522 
L 317.485674 260.440653 
L 318.504438 269.253089 
L 319.862791 283.687255 
L 324.277435 333.757742 
L 325.296199 342.029267 
L 325.975375 346.237539 
L 326.654551 349.273425 
L 327.333727 351.061402 
L 327.673315 351.472586 
L 328.012903 351.558116 
L 328.352491 351.317772 
L 328.692079 350.753426 
L 329.031668 349.869032 
L 329.710844 347.166142 
L 330.39002 343.280968 
L 331.408784 335.467283 
L 332.427548 325.686458 
L 334.125488 306.595098 
L 336.842192 275.686131 
L 337.860956 266.161191 
L 338.879721 258.662092 
L 339.558897 255.003865 
L 340.238073 252.529664 
L 340.577661 251.756904 
L 340.917249 251.300578 
L 341.256837 251.163299 
L 341.596425 251.345628 
L 341.936013 251.846071 
L 342.275601 252.661091 
L 342.954777 255.210661 
L 343.633953 258.926442 
L 344.652717 266.465564 
L 345.671481 275.96146 
L 347.369421 294.599369 
L 350.086126 324.991374 
L 351.10489 334.425927 
L 352.123654 341.901151 
L 352.80283 345.581151 
L 353.482006 348.106669 
L 353.821594 348.915765 
L 354.161182 349.41524 
L 354.50077 349.602196 
L 354.840358 349.475745 
L 355.179946 349.037018 
L 355.519534 348.289147 
L 356.19871 345.888401 
L 356.877886 342.337544 
L 357.557062 337.729988 
L 358.575826 329.107177 
L 359.934179 315.223688 
L 364.009235 271.365782 
L 365.027999 263.233227 
L 365.707175 259.004688 
L 366.386351 255.858685 
L 367.065527 253.873745 
L 367.405115 253.333063 
L 367.744703 253.098451 
L 368.084291 253.171108 
L 368.423879 253.550257 
L 368.763468 254.233152 
L 369.442644 256.489481 
L 370.12182 259.879805 
L 370.800996 264.314861 
L 371.81976 272.666271 
L 373.178112 286.188751 
L 377.253168 329.296874 
L 378.271932 337.377682 
L 378.951109 341.60783 
L 379.630285 344.784321 
L 380.309461 346.827786 
L 380.649049 347.407784 
L 380.988637 347.688084 
L 381.328225 347.667187 
L 381.667813 347.34553 
L 382.007401 346.725484 
L 382.686577 344.609254 
L 383.365753 341.375155 
L 384.044929 337.108409 
L 385.063693 329.022569 
L 386.422045 315.854684 
L 390.497102 273.491367 
L 391.515866 265.464798 
L 392.195042 261.235452 
L 392.874218 258.031414 
L 393.553394 255.932817 
L 393.892982 255.31534 
L 394.23257 254.99127 
L 394.572158 254.962393 
L 394.911746 255.228597 
L 395.251334 255.787875 
L 395.93051 257.768233 
L 396.609686 260.850337 
L 397.288862 264.952895 
L 398.307626 272.778916 
L 399.665979 285.598569 
L 404.080623 330.075163 
L 405.099387 337.423954 
L 405.778563 341.163209 
L 406.457739 343.861202 
L 407.136915 345.450817 
L 407.476503 345.816789 
L 407.816091 345.893505 
L 408.155679 345.680762 
L 408.495267 345.18022 
L 409.174444 343.331592 
L 409.85362 340.397333 
L 410.532796 336.454909 
L 411.55156 328.88303 
L 412.909912 316.405298 
L 417.324556 272.689178 
L 418.34332 265.379057 
L 419.022497 261.631463 
L 419.701673 258.898046 
L 420.380849 257.246888 
L 420.720437 256.840833 
L 421.060025 256.718166 
L 421.399613 256.879391 
L 421.739201 257.323185 
L 422.078789 258.04641 
L 422.757965 260.309676 
L 423.437141 263.608917 
L 424.455905 270.303827 
L 425.474669 278.737213 
L 427.172609 295.29111 
L 429.889314 322.287788 
L 430.908078 330.669273 
L 431.926842 337.310763 
L 432.606018 340.580771 
L 433.285194 342.825405 
L 433.624782 343.544781 
L 433.96437 343.989147 
L 434.303958 344.155924 
L 434.643546 344.044319 
L 434.983134 343.655331 
L 435.322722 342.99174 
L 436.001898 340.860645 
L 436.681074 337.707879 
L 437.36025 333.616386 
L 438.379014 325.958644 
L 439.737367 313.627945 
L 443.812423 274.66986 
L 444.831187 267.444662 
L 445.510363 263.687508 
L 446.189539 260.891805 
L 446.868715 259.127336 
L 447.208303 258.646384 
L 447.547891 258.437291 
L 447.887479 258.501127 
L 448.227067 258.837207 
L 448.566656 259.443097 
L 449.245832 261.445935 
L 449.925008 264.456123 
L 450.604184 268.394405 
L 451.622948 275.811084 
L 452.9813 287.82111 
L 457.056356 326.113069 
L 458.07512 333.292254 
L 458.754297 337.050804 
L 459.433473 339.873555 
L 460.112649 341.689977 
L 460.452237 342.205838 
L 460.791825 342.455499 
L 461.131413 342.437624 
L 461.471001 342.152597 
L 461.810589 341.602521 
L 462.489765 339.724105 
L 463.168941 336.852667 
L 463.848117 333.063873 
L 464.866881 325.883078 
L 466.225233 314.188028 
L 470.30029 276.55777 
L 471.319054 269.42681 
L 471.99823 265.669005 
L 472.677406 262.821817 
L 473.356582 260.956455 
L 473.69617 260.407319 
L 474.035758 260.118794 
L 474.375346 260.09247 
L 474.714934 260.328253 
L 475.054522 260.824364 
L 475.733698 262.582114 
L 476.412874 265.318559 
L 477.09205 268.961525 
L 478.110814 275.911546 
L 479.469167 287.297274 
L 483.883811 326.804925 
L 484.902575 333.333917 
L 485.581751 336.656427 
L 486.260927 339.054135 
L 486.940103 340.467392 
L 487.279691 340.793122 
L 487.619279 340.861925 
L 487.958867 340.673616 
L 488.298455 340.229666 
L 488.977632 338.588904 
L 489.656808 335.983765 
L 490.335984 332.483025 
L 491.354748 325.758737 
L 492.7131 314.676724 
L 497.127744 275.844698 
L 498.146508 269.3501 
L 498.825685 266.020214 
L 499.504861 263.591072 
L 500.184037 262.123178 
L 500.523625 261.761858 
L 500.863213 261.652253 
L 501.202801 261.794813 
L 501.542389 262.188369 
L 501.881977 262.830137 
L 502.561153 264.83925 
L 503.240329 267.768644 
L 504.259093 273.713875 
L 505.277857 281.203634 
L 506.975797 295.906545 
L 509.692502 319.887214 
L 510.711266 327.33317 
L 511.73003 333.233915 
L 512.409206 336.139608 
L 513.088382 338.134597 
L 513.42797 338.774202 
L 513.767558 339.169538 
L 514.107146 339.318311 
L 514.446734 339.219813 
L 514.786322 338.874927 
L 515.12591 338.286117 
L 515.805086 336.394387 
L 516.484262 333.595084 
L 517.163438 329.961852 
L 518.182202 323.161169 
L 519.540555 312.209589 
L 523.615611 277.603917 
L 524.634375 271.184842 
L 525.313551 267.846526 
L 525.992727 265.362117 
L 525.992727 265.362117 
" style="fill:none;stroke:#2ca02c;stroke-linecap:square;stroke-opacity:0.4;stroke-width:2.5;"/>
   </g>
   <g id="line2d_58">
    <defs>
     <path d="M 0 2.5 
C 0.663008 2.5 1.29895 2.236584 1.767767 1.767767 
C 2.236584 1.29895 2.5 0.663008 2.5 0 
C 2.5 -0.663008 2.236584 -1.29895 1.767767 -1.767767 
C 1.29895 -2.236584 0.663008 -2.5 0 -2.5 
C -0.663008 -2.5 -1.29895 -2.236584 -1.767767 -1.767767 
C -2.236584 -1.29895 -2.5 -0.663008 -2.5 0 
C -2.5 0.663008 -2.236584 1.29895 -1.767767 1.767767 
C -1.29895 2.236584 -0.663008 2.5 0 2.5 
z
" id="m4db2dd2408" style="stroke:#2ca02c;"/>
    </defs>
    <g clip-path="url(#p17b6b131c1)">
     <use style="fill:#2ca02c;stroke:#2ca02c;" x="101.847273" xlink:href="#m4db2dd2408" y="235.394051"/>
     <use style="fill:#2ca02c;stroke:#2ca02c;" x="105.324654" xlink:href="#m4db2dd2408" y="234.806845"/>
     <use style="fill:#2ca02c;stroke:#2ca02c;" x="108.802036" xlink:href="#m4db2dd2408" y="302.007273"/>
     <use style="fill:#2ca02c;stroke:#2ca02c;" x="112.279417" xlink:href="#m4db2dd2408" y="321.800727"/>
     <use style="fill:#2ca02c;stroke:#2ca02c;" x="115.756799" xlink:href="#m4db2dd2408" y="362.275043"/>
     <use style="fill:#2ca02c;stroke:#2ca02c;" x="119.23418" xlink:href="#m4db2dd2408" y="353.552727"/>
     <use style="fill:#2ca02c;stroke:#2ca02c;" x="122.711562" xlink:href="#m4db2dd2408" y="316.735252"/>
     <use style="fill:#2ca02c;stroke:#2ca02c;" x="126.188943" xlink:href="#m4db2dd2408" y="255.822545"/>
     <use style="fill:#2ca02c;stroke:#2ca02c;" x="129.666324" xlink:href="#m4db2dd2408" y="235.394051"/>
     <use style="fill:#2ca02c;stroke:#2ca02c;" x="133.143706" xlink:href="#m4db2dd2408" y="262.73376"/>
     <use style="fill:#2ca02c;stroke:#2ca02c;" x="136.621087" xlink:href="#m4db2dd2408" y="313.253254"/>
     <use style="fill:#2ca02c;stroke:#2ca02c;" x="140.098469" xlink:href="#m4db2dd2408" y="359.738182"/>
     <use style="fill:#2ca02c;stroke:#2ca02c;" x="143.57585" xlink:href="#m4db2dd2408" y="372.109091"/>
     <use style="fill:#2ca02c;stroke:#2ca02c;" x="147.053232" xlink:href="#m4db2dd2408" y="321.413105"/>
     <use style="fill:#2ca02c;stroke:#2ca02c;" x="150.530613" xlink:href="#m4db2dd2408" y="264.206723"/>
     <use style="fill:#2ca02c;stroke:#2ca02c;" x="154.007995" xlink:href="#m4db2dd2408" y="228.370673"/>
     <use style="fill:#2ca02c;stroke:#2ca02c;" x="157.485376" xlink:href="#m4db2dd2408" y="240.152727"/>
     <use style="fill:#2ca02c;stroke:#2ca02c;" x="160.962758" xlink:href="#m4db2dd2408" y="270.588463"/>
     <use style="fill:#2ca02c;stroke:#2ca02c;" x="164.440139" xlink:href="#m4db2dd2408" y="317.716678"/>
     <use style="fill:#2ca02c;stroke:#2ca02c;" x="167.917521" xlink:href="#m4db2dd2408" y="364.843244"/>
     <use style="fill:#2ca02c;stroke:#2ca02c;" x="171.394902" xlink:href="#m4db2dd2408" y="369.926038"/>
     <use style="fill:#2ca02c;stroke:#2ca02c;" x="275.716346" xlink:href="#m4db2dd2408" y="361.387636"/>
     <use style="fill:#2ca02c;stroke:#2ca02c;" x="280.932418" xlink:href="#m4db2dd2408" y="321.800727"/>
     <use style="fill:#2ca02c;stroke:#2ca02c;" x="286.148491" xlink:href="#m4db2dd2408" y="255.822545"/>
     <use style="fill:#2ca02c;stroke:#2ca02c;" x="291.364563" xlink:href="#m4db2dd2408" y="251.806124"/>
     <use style="fill:#2ca02c;stroke:#2ca02c;" x="296.580635" xlink:href="#m4db2dd2408" y="317.002464"/>
     <use style="fill:#2ca02c;stroke:#2ca02c;" x="301.796707" xlink:href="#m4db2dd2408" y="377.607218"/>
     <use style="fill:#2ca02c;stroke:#2ca02c;" x="307.012779" xlink:href="#m4db2dd2408" y="311.522976"/>
     <use style="fill:#2ca02c;stroke:#2ca02c;" x="312.228852" xlink:href="#m4db2dd2408" y="248.083305"/>
     <use style="fill:#2ca02c;stroke:#2ca02c;" x="317.444924" xlink:href="#m4db2dd2408" y="294.15257"/>
     <use style="fill:#2ca02c;stroke:#2ca02c;" x="322.660996" xlink:href="#m4db2dd2408" y="328.398545"/>
     <use style="fill:#2ca02c;stroke:#2ca02c;" x="327.877068" xlink:href="#m4db2dd2408" y="355.614545"/>
     <use style="fill:#2ca02c;stroke:#2ca02c;" x="333.09314" xlink:href="#m4db2dd2408" y="343.243636"/>
     <use style="fill:#2ca02c;stroke:#2ca02c;" x="449.58542" xlink:href="#m4db2dd2408" y="241.739503"/>
     <use style="fill:#2ca02c;stroke:#2ca02c;" x="456.546974" xlink:href="#m4db2dd2408" y="322.625455"/>
     <use style="fill:#2ca02c;stroke:#2ca02c;" x="463.508529" xlink:href="#m4db2dd2408" y="312.316364"/>
     <use style="fill:#2ca02c;stroke:#2ca02c;" x="470.436125" xlink:href="#m4db2dd2408" y="281.389091"/>
     <use style="fill:#2ca02c;stroke:#2ca02c;" x="477.39768" xlink:href="#m4db2dd2408" y="280.493437"/>
     <use style="fill:#2ca02c;stroke:#2ca02c;" x="484.359234" xlink:href="#m4db2dd2408" y="350.740407"/>
     <use style="fill:#2ca02c;stroke:#2ca02c;" x="491.320789" xlink:href="#m4db2dd2408" y="330.872727"/>
     <use style="fill:#2ca02c;stroke:#2ca02c;" x="498.282344" xlink:href="#m4db2dd2408" y="259.243514"/>
     <use style="fill:#2ca02c;stroke:#2ca02c;" x="505.20994" xlink:href="#m4db2dd2408" y="293.76"/>
     <use style="fill:#2ca02c;stroke:#2ca02c;" x="512.171494" xlink:href="#m4db2dd2408" y="305.756483"/>
     <use style="fill:#2ca02c;stroke:#2ca02c;" x="519.133049" xlink:href="#m4db2dd2408" y="299.257632"/>
    </g>
   </g>
   <g id="patch_9">
    <path d="M 80.64 384.48 
L 80.64 203.04 
" style="fill:none;stroke:#000000;stroke-linecap:square;stroke-linejoin:miter;"/>
   </g>
   <g id="patch_10">
    <path d="M 547.2 384.48 
L 547.2 203.04 
" style="fill:none;stroke:#000000;stroke-linecap:square;stroke-linejoin:miter;"/>
   </g>
   <g id="patch_11">
    <path d="M 80.64 384.48 
L 547.2 384.48 
" style="fill:none;stroke:#000000;stroke-linecap:square;stroke-linejoin:miter;"/>
   </g>
   <g id="patch_12">
    <path d="M 80.64 203.04 
L 547.2 203.04 
" style="fill:none;stroke:#000000;stroke-linecap:square;stroke-linejoin:miter;"/>
   </g>
   <g id="legend_2">
    <g id="patch_13">
     <path d="M 372.45 238.587656 
L 536.7 238.587656 
Q 539.7 238.587656 539.7 235.587656 
L 539.7 213.54 
Q 539.7 210.54 536.7 210.54 
L 372.45 210.54 
Q 369.45 210.54 369.45 213.54 
L 369.45 235.587656 
Q 369.45 238.587656 372.45 238.587656 
z
" style="fill:#ffffff;opacity:0.8;stroke:#cccccc;stroke-linejoin:miter;"/>
    </g>
    <g id="LineCollection_4">
     <path d="M 390.45 230.187656 
L 390.45 215.187656 
" style="fill:none;stroke:#2ca02c;stroke-width:1.5;"/>
    </g>
    <g id="line2d_59"/>
    <g id="line2d_60">
     <g>
      <use style="fill:#2ca02c;stroke:#2ca02c;" x="390.45" xlink:href="#m4db2dd2408" y="222.687656"/>
     </g>
    </g>
    <g id="text_22">
     <!-- $P_{g}$ $\Omega = 1.27MHz$ -->
     <defs>
      <path d="M 8.203125 72.90625 
L 55.078125 72.90625 
L 55.078125 68.703125 
L 28.609375 0 
L 18.3125 0 
L 43.21875 64.59375 
L 8.203125 64.59375 
z
" id="DejaVuSans-55"/>
     </defs>
     <g transform="translate(417.45 227.937656)scale(0.15 -0.15)">
      <use transform="translate(0 0.78125)" xlink:href="#DejaVuSans-Oblique-80"/>
      <use transform="translate(60.302734 -15.625)scale(0.7)" xlink:href="#DejaVuSans-Oblique-103"/>
      <use transform="translate(107.470703 0.78125)" xlink:href="#DejaVuSans-32"/>
      <use transform="translate(139.257812 0.78125)" xlink:href="#DejaVuSans-937"/>
      <use transform="translate(235.15625 0.78125)" xlink:href="#DejaVuSans-61"/>
      <use transform="translate(338.427734 0.78125)" xlink:href="#DejaVuSans-49"/>
      <use transform="translate(402.050781 0.78125)" xlink:href="#DejaVuSans-46"/>
      <use transform="translate(433.759766 0.78125)" xlink:href="#DejaVuSans-50"/>
      <use transform="translate(497.382812 0.78125)" xlink:href="#DejaVuSans-55"/>
      <use transform="translate(561.005859 0.78125)" xlink:href="#DejaVuSans-Oblique-77"/>
      <use transform="translate(647.285156 0.78125)" xlink:href="#DejaVuSans-Oblique-72"/>
      <use transform="translate(722.480469 0.78125)" xlink:href="#DejaVuSans-Oblique-122"/>
     </g>
    </g>
   </g>
  </g>
 </g>
 <defs>
  <clipPath id="pa310b50f08">
   <rect height="181.44" width="466.56" x="80.64" y="21.6"/>
  </clipPath>
  <clipPath id="p17b6b131c1">
   <rect height="181.44" width="466.56" x="80.64" y="203.04"/>
  </clipPath>
 </defs>
</svg>
